<?xml version="1.0" encoding="UTF-8" standalone="no"?><svg xmlns="http://www.w3.org/2000/svg" xmlns:xlink="http://www.w3.org/1999/xlink" contentStyleType="text/css" height="1204px" preserveAspectRatio="none" style="width:1551px;height:1204px;background:#FFFFFF;" version="1.1" viewBox="0 0 1551 1204" width="1551px" zoomAndPan="magnify"><defs/><g><rect fill="#FFFFE0" height="1192.4531" style="stroke:#181818;stroke-width:0.5;" width="128" x="322.5" y="6"/><text fill="#000000" font-family="sans-serif" font-size="13" font-weight="bold" lengthAdjust="spacing" textLength="102" x="335.5" y="19.4951">&lt;&lt;System(C4)&gt;&gt;</text><text fill="#000000" font-family="sans-serif" font-size="13" font-weight="bold" lengthAdjust="spacing" textLength="58" x="363.5" y="35.8467">EletricGo</text><rect fill="#90EE90" height="1192.4531" style="stroke:#181818;stroke-width:0.5;" width="974" x="564" y="6"/><text fill="#000000" font-family="sans-serif" font-size="13" font-weight="bold" lengthAdjust="spacing" textLength="118" x="971.5" y="19.4951">&lt;&lt;Container(C4)&gt;&gt;</text><text fill="#000000" font-family="sans-serif" font-size="13" font-weight="bold" lengthAdjust="spacing" textLength="159" x="971.5" y="35.8467">Warehouse Management</text><rect fill="#FFFFFF" height="30.3516" style="stroke:#181818;stroke-width:1.0;" width="10" x="381.5" y="125.2734"/><rect fill="#FFFFFF" height="906.8672" style="stroke:#181818;stroke-width:1.0;" width="10" x="381.5" y="185.9766"/><rect fill="#FFFFFF" height="303.5156" style="stroke:#181818;stroke-width:1.0;" width="10" x="628.5" y="241.6797"/><rect fill="#FFFFFF" height="212.4609" style="stroke:#181818;stroke-width:1.0;" width="10" x="628.5" y="621.7344"/><rect fill="#FFFFFF" height="151.7578" style="stroke:#181818;stroke-width:1.0;" width="10" x="628.5" y="910.7344"/><rect fill="#FFFFFF" height="212.4609" style="stroke:#181818;stroke-width:1.0;" width="10" x="875.5" y="272.0313"/><rect fill="#FFFFFF" height="151.7578" style="stroke:#181818;stroke-width:1.0;" width="10" x="875.5" y="621.7344"/><rect fill="#FFFFFF" height="91.0547" style="stroke:#181818;stroke-width:1.0;" width="10" x="875.5" y="910.7344"/><rect fill="#FFFFFF" height="30.3516" style="stroke:#181818;stroke-width:1.0;" width="10" x="1122.5" y="302.3828"/><rect fill="#FFFFFF" height="30.3516" style="stroke:#181818;stroke-width:1.0;" width="10" x="1122.5" y="423.7891"/><rect fill="#FFFFFF" height="30.3516" style="stroke:#181818;stroke-width:1.0;" width="10" x="1122.5" y="652.0859"/><rect fill="#FFFFFF" height="30.3516" style="stroke:#181818;stroke-width:1.0;" width="10" x="1122.5" y="941.0859"/><rect fill="#FFFFFF" height="30.3516" style="stroke:#181818;stroke-width:1.0;" width="10" x="1462.5" y="363.0859"/><rect fill="#FFFFFF" height="30.3516" style="stroke:#181818;stroke-width:1.0;" width="10" x="1462.5" y="712.7891"/><rect fill="none" height="899.8672" style="stroke:#000000;stroke-width:1.5;" width="1534" x="10" y="200.9766"/><line style="stroke:#181818;stroke-width:0.5;stroke-dasharray:5.0,5.0;" x1="89" x2="89" y1="92.9219" y2="1117.8438"/><line style="stroke:#181818;stroke-width:0.5;stroke-dasharray:5.0,5.0;" x1="386.5" x2="386.5" y1="92.9219" y2="1117.8438"/><line style="stroke:#181818;stroke-width:0.5;stroke-dasharray:5.0,5.0;" x1="633" x2="633" y1="92.9219" y2="1117.8438"/><line style="stroke:#181818;stroke-width:0.5;stroke-dasharray:5.0,5.0;" x1="880" x2="880" y1="92.9219" y2="1117.8438"/><line style="stroke:#181818;stroke-width:0.5;stroke-dasharray:5.0,5.0;" x1="1127" x2="1127" y1="92.9219" y2="1117.8438"/><line style="stroke:#181818;stroke-width:0.5;stroke-dasharray:5.0,5.0;" x1="1297" x2="1297" y1="92.9219" y2="1117.8438"/><line style="stroke:#181818;stroke-width:0.5;stroke-dasharray:5.0,5.0;" x1="1467" x2="1467" y1="92.9219" y2="1117.8438"/><text fill="#000000" font-family="sans-serif" font-size="14" lengthAdjust="spacing" textLength="133" x="20" y="89.8457">Warehouse Manager</text><ellipse cx="89.5" cy="23.8125" fill="#E2E2F0" rx="8" ry="8" style="stroke:#181818;stroke-width:0.5;"/><path d="M89.5,31.8125 L89.5,58.8125 M76.5,39.8125 L102.5,39.8125 M89.5,58.8125 L76.5,73.8125 M89.5,58.8125 L102.5,73.8125 " fill="none" style="stroke:#181818;stroke-width:0.5;"/><text fill="#000000" font-family="sans-serif" font-size="14" lengthAdjust="spacing" textLength="133" x="20" y="1131.377">Warehouse Manager</text><ellipse cx="89.5" cy="1142.9531" fill="#E2E2F0" rx="8" ry="8" style="stroke:#181818;stroke-width:0.5;"/><path d="M89.5,1150.9531 L89.5,1177.9531 M76.5,1158.9531 L102.5,1158.9531 M89.5,1177.9531 L76.5,1192.9531 M89.5,1177.9531 L102.5,1192.9531 " fill="none" style="stroke:#181818;stroke-width:0.5;"/><rect fill="#FFFFFF" height="49.2188" rx="2.5" ry="2.5" style="stroke:#000000;stroke-width:0.5;" width="120" x="326.5" y="42.7031"/><text fill="#000000" font-family="sans-serif" font-size="14" font-style="italic" lengthAdjust="spacing" textLength="106" x="333.5" y="64.2363">«Container(C4)»</text><text fill="#000000" font-family="sans-serif" font-size="14" lengthAdjust="spacing" textLength="27" x="373" y="81.8457">SPA</text><rect fill="#FFFFFF" height="49.2188" rx="2.5" ry="2.5" style="stroke:#000000;stroke-width:0.5;" width="120" x="326.5" y="1116.8438"/><text fill="#000000" font-family="sans-serif" font-size="14" font-style="italic" lengthAdjust="spacing" textLength="106" x="333.5" y="1138.377">«Container(C4)»</text><text fill="#000000" font-family="sans-serif" font-size="14" lengthAdjust="spacing" textLength="27" x="373" y="1155.9863">SPA</text><rect fill="#FFFFFF" height="49.2188" rx="2.5" ry="2.5" style="stroke:#000000;stroke-width:0.5;" width="131" x="568" y="42.7031"/><text fill="#000000" font-family="sans-serif" font-size="14" font-style="italic" lengthAdjust="spacing" textLength="117" x="575" y="64.2363">«Component(C4)»</text><text fill="#000000" font-family="sans-serif" font-size="14" lengthAdjust="spacing" textLength="113" x="577" y="81.8457">DeliveryController</text><rect fill="#FFFFFF" height="49.2188" rx="2.5" ry="2.5" style="stroke:#000000;stroke-width:0.5;" width="131" x="568" y="1116.8438"/><text fill="#000000" font-family="sans-serif" font-size="14" font-style="italic" lengthAdjust="spacing" textLength="117" x="575" y="1138.377">«Component(C4)»</text><text fill="#000000" font-family="sans-serif" font-size="14" lengthAdjust="spacing" textLength="113" x="577" y="1155.9863">DeliveryController</text><rect fill="#FFFFFF" height="49.2188" rx="2.5" ry="2.5" style="stroke:#000000;stroke-width:0.5;" width="131" x="815" y="42.7031"/><text fill="#000000" font-family="sans-serif" font-size="14" font-style="italic" lengthAdjust="spacing" textLength="117" x="822" y="64.2363">«Component(C4)»</text><text fill="#000000" font-family="sans-serif" font-size="14" lengthAdjust="spacing" textLength="98" x="831.5" y="81.8457">DeliveryService</text><rect fill="#FFFFFF" height="49.2188" rx="2.5" ry="2.5" style="stroke:#000000;stroke-width:0.5;" width="131" x="815" y="1116.8438"/><text fill="#000000" font-family="sans-serif" font-size="14" font-style="italic" lengthAdjust="spacing" textLength="117" x="822" y="1138.377">«Component(C4)»</text><text fill="#000000" font-family="sans-serif" font-size="14" lengthAdjust="spacing" textLength="98" x="831.5" y="1155.9863">DeliveryService</text><rect fill="#FFFFFF" height="49.2188" rx="2.5" ry="2.5" style="stroke:#000000;stroke-width:0.5;" width="131" x="1062" y="42.7031"/><text fill="#000000" font-family="sans-serif" font-size="14" font-style="italic" lengthAdjust="spacing" textLength="117" x="1069" y="64.2363">«Component(C4)»</text><text fill="#000000" font-family="sans-serif" font-size="14" lengthAdjust="spacing" textLength="114" x="1070.5" y="81.8457">Delivery : Delivery</text><rect fill="#FFFFFF" height="49.2188" rx="2.5" ry="2.5" style="stroke:#000000;stroke-width:0.5;" width="131" x="1062" y="1116.8438"/><text fill="#000000" font-family="sans-serif" font-size="14" font-style="italic" lengthAdjust="spacing" textLength="117" x="1069" y="1138.377">«Component(C4)»</text><text fill="#000000" font-family="sans-serif" font-size="14" lengthAdjust="spacing" textLength="114" x="1070.5" y="1155.9863">Delivery : Delivery</text><rect fill="#FFFFFF" height="49.2188" rx="2.5" ry="2.5" style="stroke:#000000;stroke-width:0.5;" width="188" x="1203" y="42.7031"/><text fill="#000000" font-family="sans-serif" font-size="14" font-style="italic" lengthAdjust="spacing" textLength="117" x="1238.5" y="64.2363">«Component(C4)»</text><text fill="#000000" font-family="sans-serif" font-size="14" lengthAdjust="spacing" textLength="174" x="1210" y="81.8457">DeliveryDTO : DeliveryDTO</text><rect fill="#FFFFFF" height="49.2188" rx="2.5" ry="2.5" style="stroke:#000000;stroke-width:0.5;" width="188" x="1203" y="1116.8438"/><text fill="#000000" font-family="sans-serif" font-size="14" font-style="italic" lengthAdjust="spacing" textLength="117" x="1238.5" y="1138.377">«Component(C4)»</text><text fill="#000000" font-family="sans-serif" font-size="14" lengthAdjust="spacing" textLength="174" x="1210" y="1155.9863">DeliveryDTO : DeliveryDTO</text><rect fill="#FFFFFF" height="49.2188" rx="2.5" ry="2.5" style="stroke:#000000;stroke-width:0.5;" width="133" x="1401" y="42.7031"/><text fill="#000000" font-family="sans-serif" font-size="14" font-style="italic" lengthAdjust="spacing" textLength="117" x="1409" y="64.2363">«Component(C4)»</text><text fill="#000000" font-family="sans-serif" font-size="14" lengthAdjust="spacing" textLength="119" x="1408" y="81.8457">DeliveryRepository</text><rect fill="#FFFFFF" height="49.2188" rx="2.5" ry="2.5" style="stroke:#000000;stroke-width:0.5;" width="133" x="1401" y="1116.8438"/><text fill="#000000" font-family="sans-serif" font-size="14" font-style="italic" lengthAdjust="spacing" textLength="117" x="1409" y="1138.377">«Component(C4)»</text><text fill="#000000" font-family="sans-serif" font-size="14" lengthAdjust="spacing" textLength="119" x="1408" y="1155.9863">DeliveryRepository</text><rect fill="#FFFFFF" height="30.3516" style="stroke:#181818;stroke-width:1.0;" width="10" x="381.5" y="125.2734"/><rect fill="#FFFFFF" height="906.8672" style="stroke:#181818;stroke-width:1.0;" width="10" x="381.5" y="185.9766"/><rect fill="#FFFFFF" height="303.5156" style="stroke:#181818;stroke-width:1.0;" width="10" x="628.5" y="241.6797"/><rect fill="#FFFFFF" height="212.4609" style="stroke:#181818;stroke-width:1.0;" width="10" x="628.5" y="621.7344"/><rect fill="#FFFFFF" height="151.7578" style="stroke:#181818;stroke-width:1.0;" width="10" x="628.5" y="910.7344"/><rect fill="#FFFFFF" height="212.4609" style="stroke:#181818;stroke-width:1.0;" width="10" x="875.5" y="272.0313"/><rect fill="#FFFFFF" height="151.7578" style="stroke:#181818;stroke-width:1.0;" width="10" x="875.5" y="621.7344"/><rect fill="#FFFFFF" height="91.0547" style="stroke:#181818;stroke-width:1.0;" width="10" x="875.5" y="910.7344"/><rect fill="#FFFFFF" height="30.3516" style="stroke:#181818;stroke-width:1.0;" width="10" x="1122.5" y="302.3828"/><rect fill="#FFFFFF" height="30.3516" style="stroke:#181818;stroke-width:1.0;" width="10" x="1122.5" y="423.7891"/><rect fill="#FFFFFF" height="30.3516" style="stroke:#181818;stroke-width:1.0;" width="10" x="1122.5" y="652.0859"/><rect fill="#FFFFFF" height="30.3516" style="stroke:#181818;stroke-width:1.0;" width="10" x="1122.5" y="941.0859"/><rect fill="#FFFFFF" height="30.3516" style="stroke:#181818;stroke-width:1.0;" width="10" x="1462.5" y="363.0859"/><rect fill="#FFFFFF" height="30.3516" style="stroke:#181818;stroke-width:1.0;" width="10" x="1462.5" y="712.7891"/><polygon fill="#181818" points="369.5,121.2734,379.5,125.2734,369.5,129.2734,373.5,125.2734" style="stroke:#181818;stroke-width:1.0;"/><line style="stroke:#181818;stroke-width:1.0;" x1="89.5" x2="375.5" y1="125.2734" y2="125.2734"/><text fill="#000000" font-family="sans-serif" font-size="13" font-weight="bold" lengthAdjust="spacing" textLength="7" x="96.5" y="120.417">1</text><text fill="#000000" font-family="sans-serif" font-size="13" lengthAdjust="spacing" textLength="176" x="107.5" y="120.417">I want to create a new Delivery</text><polygon fill="#181818" points="100.5,151.625,90.5,155.625,100.5,159.625,96.5,155.625" style="stroke:#181818;stroke-width:1.0;"/><line style="stroke:#181818;stroke-width:1.0;stroke-dasharray:2.0,2.0;" x1="94.5" x2="385.5" y1="155.625" y2="155.625"/><text fill="#000000" font-family="sans-serif" font-size="13" font-weight="bold" lengthAdjust="spacing" textLength="7" x="106.5" y="150.7686">2</text><text fill="#000000" font-family="sans-serif" font-size="13" lengthAdjust="spacing" textLength="226" x="117.5" y="150.7686">asks for the details on the new Delivery</text><polygon fill="#181818" points="369.5,181.9766,379.5,185.9766,369.5,189.9766,373.5,185.9766" style="stroke:#181818;stroke-width:1.0;"/><line style="stroke:#181818;stroke-width:1.0;" x1="89.5" x2="375.5" y1="185.9766" y2="185.9766"/><text fill="#000000" font-family="sans-serif" font-size="13" font-weight="bold" lengthAdjust="spacing" textLength="7" x="96.5" y="181.1201">3</text><text fill="#000000" font-family="sans-serif" font-size="13" lengthAdjust="spacing" textLength="262" x="107.5" y="181.1201">inserts the information about the new Delivery</text><path d="M10,200.9766 L71,200.9766 L71,209.3281 L61,219.3281 L10,219.3281 L10,200.9766 " fill="#EEEEEE" style="stroke:#000000;stroke-width:1.5;"/><rect fill="none" height="899.8672" style="stroke:#000000;stroke-width:1.5;" width="1534" x="10" y="200.9766"/><text fill="#000000" font-family="sans-serif" font-size="13" font-weight="bold" lengthAdjust="spacing" textLength="16" x="25" y="215.4717">alt</text><text fill="#000000" font-family="sans-serif" font-size="11" font-weight="bold" lengthAdjust="spacing" textLength="237" x="86" y="214.3955">[If the Delivery doesn't exist in the system]</text><polygon fill="#181818" points="616.5,237.6797,626.5,241.6797,616.5,245.6797,620.5,241.6797" style="stroke:#181818;stroke-width:1.0;"/><line style="stroke:#181818;stroke-width:1.0;" x1="391.5" x2="622.5" y1="241.6797" y2="241.6797"/><text fill="#000000" font-family="sans-serif" font-size="13" font-weight="bold" lengthAdjust="spacing" textLength="7" x="398.5" y="236.8232">4</text><text fill="#000000" font-family="sans-serif" font-size="13" lengthAdjust="spacing" textLength="139" x="409.5" y="236.8232">POST Post(DeliveryDto)</text><polygon fill="#181818" points="863.5,268.0313,873.5,272.0313,863.5,276.0313,867.5,272.0313" style="stroke:#181818;stroke-width:1.0;"/><line style="stroke:#181818;stroke-width:1.0;" x1="638.5" x2="869.5" y1="272.0313" y2="272.0313"/><text fill="#000000" font-family="sans-serif" font-size="13" font-weight="bold" lengthAdjust="spacing" textLength="7" x="645.5" y="267.1748">5</text><text fill="#000000" font-family="sans-serif" font-size="13" lengthAdjust="spacing" textLength="156" x="656.5" y="267.1748">CreateDelivery(DeliveryDto)</text><polygon fill="#181818" points="1110.5,298.3828,1120.5,302.3828,1110.5,306.3828,1114.5,302.3828" style="stroke:#181818;stroke-width:1.0;"/><line style="stroke:#181818;stroke-width:1.0;" x1="885.5" x2="1116.5" y1="302.3828" y2="302.3828"/><text fill="#000000" font-family="sans-serif" font-size="13" font-weight="bold" lengthAdjust="spacing" textLength="7" x="892.5" y="297.5264">6</text><text fill="#000000" font-family="sans-serif" font-size="13" lengthAdjust="spacing" textLength="111" x="903.5" y="297.5264">Create(DeliveryDto)</text><polygon fill="#181818" points="896.5,328.7344,886.5,332.7344,896.5,336.7344,892.5,332.7344" style="stroke:#181818;stroke-width:1.0;"/><line style="stroke:#181818;stroke-width:1.0;stroke-dasharray:2.0,2.0;" x1="890.5" x2="1126.5" y1="332.7344" y2="332.7344"/><text fill="#000000" font-family="sans-serif" font-size="13" font-weight="bold" lengthAdjust="spacing" textLength="7" x="902.5" y="327.8779">7</text><text fill="#000000" font-family="sans-serif" font-size="13" lengthAdjust="spacing" textLength="45" x="913.5" y="327.8779">Delivery</text><polygon fill="#181818" points="1450.5,359.0859,1460.5,363.0859,1450.5,367.0859,1454.5,363.0859" style="stroke:#181818;stroke-width:1.0;"/><line style="stroke:#181818;stroke-width:1.0;" x1="885.5" x2="1456.5" y1="363.0859" y2="363.0859"/><text fill="#000000" font-family="sans-serif" font-size="13" font-weight="bold" lengthAdjust="spacing" textLength="7" x="892.5" y="358.2295">8</text><text fill="#000000" font-family="sans-serif" font-size="13" lengthAdjust="spacing" textLength="79" x="903.5" y="358.2295">save(Delivery)</text><polygon fill="#181818" points="896.5,389.4375,886.5,393.4375,896.5,397.4375,892.5,393.4375" style="stroke:#181818;stroke-width:1.0;"/><line style="stroke:#181818;stroke-width:1.0;stroke-dasharray:2.0,2.0;" x1="890.5" x2="1466.5" y1="393.4375" y2="393.4375"/><text fill="#000000" font-family="sans-serif" font-size="13" font-weight="bold" lengthAdjust="spacing" textLength="7" x="902.5" y="388.5811">9</text><text fill="#000000" font-family="sans-serif" font-size="13" lengthAdjust="spacing" textLength="22" x="913.5" y="388.5811">true</text><polygon fill="#181818" points="1110.5,419.7891,1120.5,423.7891,1110.5,427.7891,1114.5,423.7891" style="stroke:#181818;stroke-width:1.0;"/><line style="stroke:#181818;stroke-width:1.0;" x1="885.5" x2="1116.5" y1="423.7891" y2="423.7891"/><text fill="#000000" font-family="sans-serif" font-size="13" font-weight="bold" lengthAdjust="spacing" textLength="14" x="892.5" y="418.9326">10</text><text fill="#000000" font-family="sans-serif" font-size="13" lengthAdjust="spacing" textLength="90" x="910.5" y="418.9326">toDeliveryDTO()</text><polygon fill="#181818" points="896.5,450.1406,886.5,454.1406,896.5,458.1406,892.5,454.1406" style="stroke:#181818;stroke-width:1.0;"/><line style="stroke:#181818;stroke-width:1.0;stroke-dasharray:2.0,2.0;" x1="890.5" x2="1126.5" y1="454.1406" y2="454.1406"/><text fill="#000000" font-family="sans-serif" font-size="13" font-weight="bold" lengthAdjust="spacing" textLength="14" x="902.5" y="449.2842">11</text><text fill="#000000" font-family="sans-serif" font-size="13" lengthAdjust="spacing" textLength="65" x="920.5" y="449.2842">DeliveryDto</text><polygon fill="#181818" points="649.5,480.4922,639.5,484.4922,649.5,488.4922,645.5,484.4922" style="stroke:#181818;stroke-width:1.0;"/><line style="stroke:#181818;stroke-width:1.0;stroke-dasharray:2.0,2.0;" x1="643.5" x2="879.5" y1="484.4922" y2="484.4922"/><text fill="#000000" font-family="sans-serif" font-size="13" font-weight="bold" lengthAdjust="spacing" textLength="14" x="655.5" y="479.6357">12</text><text fill="#000000" font-family="sans-serif" font-size="13" lengthAdjust="spacing" textLength="65" x="673.5" y="479.6357">DeliveryDto</text><polygon fill="#181818" points="402.5,510.8438,392.5,514.8438,402.5,518.8438,398.5,514.8438" style="stroke:#181818;stroke-width:1.0;"/><line style="stroke:#181818;stroke-width:1.0;stroke-dasharray:2.0,2.0;" x1="396.5" x2="627.5" y1="514.8438" y2="514.8438"/><text fill="#000000" font-family="sans-serif" font-size="13" font-weight="bold" lengthAdjust="spacing" textLength="14" x="408.5" y="509.9873">13</text><text fill="#000000" font-family="sans-serif" font-size="13" lengthAdjust="spacing" textLength="65" x="426.5" y="509.9873">DeliveryDto</text><polygon fill="#181818" points="402.5,541.1953,392.5,545.1953,402.5,549.1953,398.5,545.1953" style="stroke:#181818;stroke-width:1.0;"/><line style="stroke:#181818;stroke-width:1.0;stroke-dasharray:2.0,2.0;" x1="396.5" x2="632.5" y1="545.1953" y2="545.1953"/><text fill="#000000" font-family="sans-serif" font-size="13" font-weight="bold" lengthAdjust="spacing" textLength="14" x="408.5" y="540.3389">14</text><text fill="#000000" font-family="sans-serif" font-size="13" lengthAdjust="spacing" textLength="44" x="426.5" y="540.3389">200 OK</text><polygon fill="#181818" points="100.5,571.5469,90.5,575.5469,100.5,579.5469,96.5,575.5469" style="stroke:#181818;stroke-width:1.0;"/><line style="stroke:#181818;stroke-width:1.0;stroke-dasharray:2.0,2.0;" x1="94.5" x2="380.5" y1="575.5469" y2="575.5469"/><text fill="#000000" font-family="sans-serif" font-size="13" font-weight="bold" lengthAdjust="spacing" textLength="14" x="106.5" y="570.6904">15</text><text fill="#000000" font-family="sans-serif" font-size="13" lengthAdjust="spacing" textLength="246" x="124.5" y="570.6904">informs about the success of the operation</text><line style="stroke:#000000;stroke-width:1.0;stroke-dasharray:2.0,2.0;" x1="10" x2="1544" y1="584.5469" y2="584.5469"/><text fill="#000000" font-family="sans-serif" font-size="11" font-weight="bold" lengthAdjust="spacing" textLength="259" x="15" y="595.9658">[If a Delivery already exists with the id entered]</text><polygon fill="#181818" points="863.5,617.7344,873.5,621.7344,863.5,625.7344,867.5,621.7344" style="stroke:#181818;stroke-width:1.0;"/><line style="stroke:#181818;stroke-width:1.0;" x1="638.5" x2="869.5" y1="621.7344" y2="621.7344"/><text fill="#000000" font-family="sans-serif" font-size="13" font-weight="bold" lengthAdjust="spacing" textLength="14" x="645.5" y="616.8779">16</text><text fill="#000000" font-family="sans-serif" font-size="13" lengthAdjust="spacing" textLength="156" x="663.5" y="616.8779">CreateDelivery(DeliveryDto)</text><polygon fill="#181818" points="1110.5,648.0859,1120.5,652.0859,1110.5,656.0859,1114.5,652.0859" style="stroke:#181818;stroke-width:1.0;"/><line style="stroke:#181818;stroke-width:1.0;" x1="885.5" x2="1116.5" y1="652.0859" y2="652.0859"/><text fill="#000000" font-family="sans-serif" font-size="13" font-weight="bold" lengthAdjust="spacing" textLength="14" x="892.5" y="647.2295">17</text><text fill="#000000" font-family="sans-serif" font-size="13" lengthAdjust="spacing" textLength="111" x="910.5" y="647.2295">Create(DeliveryDto)</text><polygon fill="#181818" points="896.5,678.4375,886.5,682.4375,896.5,686.4375,892.5,682.4375" style="stroke:#181818;stroke-width:1.0;"/><line style="stroke:#181818;stroke-width:1.0;stroke-dasharray:2.0,2.0;" x1="890.5" x2="1126.5" y1="682.4375" y2="682.4375"/><text fill="#000000" font-family="sans-serif" font-size="13" font-weight="bold" lengthAdjust="spacing" textLength="14" x="902.5" y="677.5811">18</text><text fill="#000000" font-family="sans-serif" font-size="13" lengthAdjust="spacing" textLength="45" x="920.5" y="677.5811">Delivery</text><polygon fill="#181818" points="1450.5,708.7891,1460.5,712.7891,1450.5,716.7891,1454.5,712.7891" style="stroke:#181818;stroke-width:1.0;"/><line style="stroke:#181818;stroke-width:1.0;" x1="885.5" x2="1456.5" y1="712.7891" y2="712.7891"/><text fill="#000000" font-family="sans-serif" font-size="13" font-weight="bold" lengthAdjust="spacing" textLength="14" x="892.5" y="707.9326">19</text><text fill="#000000" font-family="sans-serif" font-size="13" lengthAdjust="spacing" textLength="79" x="910.5" y="707.9326">save(Delivery)</text><polygon fill="#181818" points="896.5,739.1406,886.5,743.1406,896.5,747.1406,892.5,743.1406" style="stroke:#181818;stroke-width:1.0;"/><line style="stroke:#181818;stroke-width:1.0;stroke-dasharray:2.0,2.0;" x1="890.5" x2="1466.5" y1="743.1406" y2="743.1406"/><text fill="#000000" font-family="sans-serif" font-size="13" font-weight="bold" lengthAdjust="spacing" textLength="14" x="902.5" y="738.2842">20</text><text fill="#000000" font-family="sans-serif" font-size="13" lengthAdjust="spacing" textLength="27" x="920.5" y="738.2842">false</text><polygon fill="#181818" points="649.5,769.4922,639.5,773.4922,649.5,777.4922,645.5,773.4922" style="stroke:#181818;stroke-width:1.0;"/><line style="stroke:#181818;stroke-width:1.0;stroke-dasharray:2.0,2.0;" x1="643.5" x2="879.5" y1="773.4922" y2="773.4922"/><text fill="#000000" font-family="sans-serif" font-size="13" font-weight="bold" lengthAdjust="spacing" textLength="14" x="655.5" y="768.6357">21</text><text fill="#000000" font-family="sans-serif" font-size="13" lengthAdjust="spacing" textLength="129" x="673.5" y="768.6357">BadRequestException</text><polygon fill="#181818" points="402.5,799.8438,392.5,803.8438,402.5,807.8438,398.5,803.8438" style="stroke:#181818;stroke-width:1.0;"/><line style="stroke:#181818;stroke-width:1.0;stroke-dasharray:2.0,2.0;" x1="396.5" x2="627.5" y1="803.8438" y2="803.8438"/><text fill="#000000" font-family="sans-serif" font-size="13" font-weight="bold" lengthAdjust="spacing" textLength="14" x="408.5" y="798.9873">22</text><text fill="#000000" font-family="sans-serif" font-size="13" lengthAdjust="spacing" textLength="129" x="426.5" y="798.9873">BadRequestException</text><polygon fill="#181818" points="402.5,830.1953,392.5,834.1953,402.5,838.1953,398.5,834.1953" style="stroke:#181818;stroke-width:1.0;"/><line style="stroke:#181818;stroke-width:1.0;stroke-dasharray:2.0,2.0;" x1="396.5" x2="632.5" y1="834.1953" y2="834.1953"/><text fill="#000000" font-family="sans-serif" font-size="13" font-weight="bold" lengthAdjust="spacing" textLength="14" x="408.5" y="829.3389">23</text><text fill="#000000" font-family="sans-serif" font-size="13" lengthAdjust="spacing" textLength="118" x="426.5" y="829.3389">400 BAD REQUEST</text><polygon fill="#181818" points="100.5,860.5469,90.5,864.5469,100.5,868.5469,96.5,864.5469" style="stroke:#181818;stroke-width:1.0;"/><line style="stroke:#181818;stroke-width:1.0;stroke-dasharray:2.0,2.0;" x1="94.5" x2="380.5" y1="864.5469" y2="864.5469"/><text fill="#000000" font-family="sans-serif" font-size="13" font-weight="bold" lengthAdjust="spacing" textLength="14" x="106.5" y="859.6904">24</text><text fill="#000000" font-family="sans-serif" font-size="13" lengthAdjust="spacing" textLength="213" x="124.5" y="859.6904">informs about the fail of the operation</text><line style="stroke:#000000;stroke-width:1.0;stroke-dasharray:2.0,2.0;" x1="10" x2="1544" y1="873.5469" y2="873.5469"/><text fill="#000000" font-family="sans-serif" font-size="11" font-weight="bold" lengthAdjust="spacing" textLength="285" x="15" y="884.9658">[If the attributes do not respect the business rules]</text><polygon fill="#181818" points="863.5,906.7344,873.5,910.7344,863.5,914.7344,867.5,910.7344" style="stroke:#181818;stroke-width:1.0;"/><line style="stroke:#181818;stroke-width:1.0;" x1="638.5" x2="869.5" y1="910.7344" y2="910.7344"/><text fill="#000000" font-family="sans-serif" font-size="13" font-weight="bold" lengthAdjust="spacing" textLength="14" x="645.5" y="905.8779">25</text><text fill="#000000" font-family="sans-serif" font-size="13" lengthAdjust="spacing" textLength="156" x="663.5" y="905.8779">CreateDelivery(DeliveryDto)</text><polygon fill="#181818" points="1110.5,937.0859,1120.5,941.0859,1110.5,945.0859,1114.5,941.0859" style="stroke:#181818;stroke-width:1.0;"/><line style="stroke:#181818;stroke-width:1.0;" x1="885.5" x2="1116.5" y1="941.0859" y2="941.0859"/><text fill="#000000" font-family="sans-serif" font-size="13" font-weight="bold" lengthAdjust="spacing" textLength="14" x="892.5" y="936.2295">26</text><text fill="#000000" font-family="sans-serif" font-size="13" lengthAdjust="spacing" textLength="111" x="910.5" y="936.2295">Create(DeliveryDto)</text><polygon fill="#181818" points="896.5,967.4375,886.5,971.4375,896.5,975.4375,892.5,971.4375" style="stroke:#181818;stroke-width:1.0;"/><line style="stroke:#181818;stroke-width:1.0;stroke-dasharray:2.0,2.0;" x1="890.5" x2="1126.5" y1="971.4375" y2="971.4375"/><text fill="#000000" font-family="sans-serif" font-size="13" font-weight="bold" lengthAdjust="spacing" textLength="14" x="902.5" y="966.5811">27</text><text fill="#000000" font-family="sans-serif" font-size="13" lengthAdjust="spacing" textLength="195" x="920.5" y="966.5811">BusinessRuleValidationException</text><polygon fill="#181818" points="649.5,997.7891,639.5,1001.7891,649.5,1005.7891,645.5,1001.7891" style="stroke:#181818;stroke-width:1.0;"/><line style="stroke:#181818;stroke-width:1.0;stroke-dasharray:2.0,2.0;" x1="643.5" x2="879.5" y1="1001.7891" y2="1001.7891"/><text fill="#000000" font-family="sans-serif" font-size="13" font-weight="bold" lengthAdjust="spacing" textLength="14" x="655.5" y="996.9326">28</text><text fill="#000000" font-family="sans-serif" font-size="13" lengthAdjust="spacing" textLength="195" x="673.5" y="996.9326">BusinessRuleValidationException</text><polygon fill="#181818" points="402.5,1028.1406,392.5,1032.1406,402.5,1036.1406,398.5,1032.1406" style="stroke:#181818;stroke-width:1.0;"/><line style="stroke:#181818;stroke-width:1.0;stroke-dasharray:2.0,2.0;" x1="396.5" x2="627.5" y1="1032.1406" y2="1032.1406"/><text fill="#000000" font-family="sans-serif" font-size="13" font-weight="bold" lengthAdjust="spacing" textLength="14" x="408.5" y="1027.2842">29</text><text fill="#000000" font-family="sans-serif" font-size="13" lengthAdjust="spacing" textLength="195" x="426.5" y="1027.2842">BusinessRuleValidationException</text><polygon fill="#181818" points="402.5,1058.4922,392.5,1062.4922,402.5,1066.4922,398.5,1062.4922" style="stroke:#181818;stroke-width:1.0;"/><line style="stroke:#181818;stroke-width:1.0;stroke-dasharray:2.0,2.0;" x1="396.5" x2="632.5" y1="1062.4922" y2="1062.4922"/><text fill="#000000" font-family="sans-serif" font-size="13" font-weight="bold" lengthAdjust="spacing" textLength="14" x="408.5" y="1057.6357">30</text><text fill="#000000" font-family="sans-serif" font-size="13" lengthAdjust="spacing" textLength="118" x="426.5" y="1057.6357">400 BAD REQUEST</text><polygon fill="#181818" points="100.5,1088.8438,90.5,1092.8438,100.5,1096.8438,96.5,1092.8438" style="stroke:#181818;stroke-width:1.0;"/><line style="stroke:#181818;stroke-width:1.0;stroke-dasharray:2.0,2.0;" x1="94.5" x2="385.5" y1="1092.8438" y2="1092.8438"/><text fill="#000000" font-family="sans-serif" font-size="13" font-weight="bold" lengthAdjust="spacing" textLength="14" x="106.5" y="1087.9873">31</text><text fill="#000000" font-family="sans-serif" font-size="13" lengthAdjust="spacing" textLength="213" x="124.5" y="1087.9873">informs about the fail of the operation</text><!--MD5=[27841f8ef2fadc67f9044e2d447cc6bb]
@startuml createDeliverySD
autonumber

skinparam sequence {
ParticipantBorderColor black
ParticipantBackgroundColor white
}

actor "Warehouse Manager" as admin


box "<<System(C4)>>\n       EletricGo" #LightYellow
participant SPA as ui <<Container(C4)>>
box "<<Container(C4)>>\nWarehouse Management" #LightGreen
participant DeliveryController as  CTL <<Component(C4)>>
participant DeliveryService as  SV <<Component(C4)>>
participant "Delivery : Delivery" as  delivery <<Component(C4)>>
participant "DeliveryDTO : DeliveryDTO" as  DTO <<Component(C4)>>
participant DeliveryRepository as  DR <<Component(C4)>>
end box
end box

admin -> ui: I want to create a new Delivery
activate ui

ui - -> admin: asks for the details on the new Delivery
deactivate ui

admin -> ui: inserts the information about the new Delivery

activate ui

alt If the Delivery doesn't exist in the system 
ui -> CTL: POST Post(DeliveryDto)
activate CTL
CTL -> SV : CreateDelivery(DeliveryDto)
activate SV

SV -> delivery : Create(DeliveryDto)
activate delivery
delivery - -> SV : Delivery 
deactivate delivery

SV -> DR : save(Delivery)
activate DR
DR - -> SV : true 
deactivate DR

SV -> delivery : toDeliveryDTO()
activate delivery
delivery - -> SV : DeliveryDto
deactivate delivery
SV - -> CTL : DeliveryDto
deactivate SV
CTL - -> ui : DeliveryDto

CTL - -> ui: 200 OK
deactivate CTL


ui - -> admin: informs about the success of the operation



else If a Delivery already exists with the id entered




CTL -> SV : CreateDelivery(DeliveryDto)
activate CTL
activate SV

SV -> delivery : Create(DeliveryDto)
activate delivery
delivery - -> SV : Delivery 
deactivate delivery

SV -> DR : save(Delivery)
activate DR
DR - -> SV : false
deactivate DR
SV - -> CTL : BadRequestException
deactivate SV
CTL - -> ui : BadRequestException


CTL - -> ui: 400 BAD REQUEST
deactivate CTL


ui - -> admin: informs about the fail of the operation


else If the attributes do not respect the business rules


CTL -> SV : CreateDelivery(DeliveryDto)
activate CTL
activate SV

SV -> delivery : Create(DeliveryDto)
activate delivery
delivery - -> SV : BusinessRuleValidationException
deactivate delivery

SV - -> CTL : BusinessRuleValidationException
deactivate SV
CTL - -> ui : BusinessRuleValidationException

CTL - -> ui: 400 BAD REQUEST
deactivate CTL
ui - -> admin: informs about the fail of the operation

deactivate ui
end 
deactivate admin

@enduml

PlantUML version 1.2022.12(Sun Oct 23 18:12:26 GMT 2022)
(GPL source distribution)
Java Runtime: OpenJDK Runtime Environment
JVM: OpenJDK 64-Bit Server VM
Default Encoding: Cp1252
Language: pt
Country: PT
--></g></svg>