<?xml version="1.0" encoding="UTF-8" standalone="no"?><svg xmlns="http://www.w3.org/2000/svg" xmlns:xlink="http://www.w3.org/1999/xlink" contentStyleType="text/css" height="702px" preserveAspectRatio="none" style="width:1272px;height:702px;background:#FFFFFF;" version="1.1" viewBox="0 0 1272 702" width="1272px" zoomAndPan="magnify"><defs/><g><rect fill="#FFFFE0" height="690.9922" style="stroke:#181818;stroke-width:0.5;" width="128" x="318.5" y="6"/><text fill="#000000" font-family="sans-serif" font-size="13" font-weight="bold" lengthAdjust="spacing" textLength="102" x="331.5" y="19.4951">&lt;&lt;System(C4)&gt;&gt;</text><text fill="#000000" font-family="sans-serif" font-size="13" font-weight="bold" lengthAdjust="spacing" textLength="58" x="359.5" y="35.8467">EletricGo</text><rect fill="#90EE90" height="690.9922" style="stroke:#181818;stroke-width:0.5;" width="794" x="465" y="6"/><text fill="#000000" font-family="sans-serif" font-size="13" font-weight="bold" lengthAdjust="spacing" textLength="118" x="782.5" y="19.4951">&lt;&lt;Container(C4)&gt;&gt;</text><text fill="#000000" font-family="sans-serif" font-size="13" font-weight="bold" lengthAdjust="spacing" textLength="159" x="782.5" y="35.8467">Warehouse Management</text><rect fill="#FFFFFF" height="30.3516" style="stroke:#181818;stroke-width:1.0;" width="10" x="377.5" y="125.2734"/><rect fill="#FFFFFF" height="405.4063" style="stroke:#181818;stroke-width:1.0;" width="10" x="377.5" y="185.9766"/><rect fill="#FFFFFF" height="151.7578" style="stroke:#181818;stroke-width:1.0;" width="10" x="529.5" y="241.6797"/><rect fill="#FFFFFF" height="91.0547" style="stroke:#181818;stroke-width:1.0;" width="10" x="529.5" y="469.9766"/><rect fill="#FFFFFF" height="91.0547" style="stroke:#181818;stroke-width:1.0;" width="10" x="702.5" y="272.0313"/><rect fill="#FFFFFF" height="60.7031" style="stroke:#181818;stroke-width:1.0;" width="10" x="702.5" y="469.9766"/><rect fill="#FFFFFF" height="30.3516" style="stroke:#181818;stroke-width:1.0;" width="10" x="1183.5" y="302.3828"/><rect fill="#FFFFFF" height="30.3516" style="stroke:#181818;stroke-width:1.0;" width="10" x="1183.5" y="500.3281"/><rect fill="none" height="398.4063" style="stroke:#000000;stroke-width:1.5;" width="1255" x="10" y="200.9766"/><line style="stroke:#181818;stroke-width:0.5;stroke-dasharray:5.0,5.0;" x1="89" x2="89" y1="92.9219" y2="616.3828"/><line style="stroke:#181818;stroke-width:0.5;stroke-dasharray:5.0,5.0;" x1="382.5" x2="382.5" y1="92.9219" y2="616.3828"/><line style="stroke:#181818;stroke-width:0.5;stroke-dasharray:5.0,5.0;" x1="534" x2="534" y1="92.9219" y2="616.3828"/><line style="stroke:#181818;stroke-width:0.5;stroke-dasharray:5.0,5.0;" x1="707" x2="707" y1="92.9219" y2="616.3828"/><line style="stroke:#181818;stroke-width:0.5;stroke-dasharray:5.0,5.0;" x1="848" x2="848" y1="92.9219" y2="616.3828"/><line style="stroke:#181818;stroke-width:0.5;stroke-dasharray:5.0,5.0;" x1="1018" x2="1018" y1="92.9219" y2="616.3828"/><line style="stroke:#181818;stroke-width:0.5;stroke-dasharray:5.0,5.0;" x1="1188" x2="1188" y1="92.9219" y2="616.3828"/><text fill="#000000" font-family="sans-serif" font-size="14" lengthAdjust="spacing" textLength="133" x="20" y="89.8457">Warehouse Manager</text><ellipse cx="89.5" cy="23.8125" fill="#E2E2F0" rx="8" ry="8" style="stroke:#181818;stroke-width:0.5;"/><path d="M89.5,31.8125 L89.5,58.8125 M76.5,39.8125 L102.5,39.8125 M89.5,58.8125 L76.5,73.8125 M89.5,58.8125 L102.5,73.8125 " fill="none" style="stroke:#181818;stroke-width:0.5;"/><text fill="#000000" font-family="sans-serif" font-size="14" lengthAdjust="spacing" textLength="133" x="20" y="629.916">Warehouse Manager</text><ellipse cx="89.5" cy="641.4922" fill="#E2E2F0" rx="8" ry="8" style="stroke:#181818;stroke-width:0.5;"/><path d="M89.5,649.4922 L89.5,676.4922 M76.5,657.4922 L102.5,657.4922 M89.5,676.4922 L76.5,691.4922 M89.5,676.4922 L102.5,691.4922 " fill="none" style="stroke:#181818;stroke-width:0.5;"/><rect fill="#FFFFFF" height="49.2188" rx="2.5" ry="2.5" style="stroke:#000000;stroke-width:0.5;" width="120" x="322.5" y="42.7031"/><text fill="#000000" font-family="sans-serif" font-size="14" font-style="italic" lengthAdjust="spacing" textLength="106" x="329.5" y="64.2363">«Container(C4)»</text><text fill="#000000" font-family="sans-serif" font-size="14" lengthAdjust="spacing" textLength="27" x="369" y="81.8457">SPA</text><rect fill="#FFFFFF" height="49.2188" rx="2.5" ry="2.5" style="stroke:#000000;stroke-width:0.5;" width="120" x="322.5" y="615.3828"/><text fill="#000000" font-family="sans-serif" font-size="14" font-style="italic" lengthAdjust="spacing" textLength="106" x="329.5" y="636.916">«Container(C4)»</text><text fill="#000000" font-family="sans-serif" font-size="14" lengthAdjust="spacing" textLength="27" x="369" y="654.5254">SPA</text><rect fill="#FFFFFF" height="49.2188" rx="2.5" ry="2.5" style="stroke:#000000;stroke-width:0.5;" width="131" x="469" y="42.7031"/><text fill="#000000" font-family="sans-serif" font-size="14" font-style="italic" lengthAdjust="spacing" textLength="117" x="476" y="64.2363">«Component(C4)»</text><text fill="#000000" font-family="sans-serif" font-size="14" lengthAdjust="spacing" textLength="113" x="478" y="81.8457">DeliveryController</text><rect fill="#FFFFFF" height="49.2188" rx="2.5" ry="2.5" style="stroke:#000000;stroke-width:0.5;" width="131" x="469" y="615.3828"/><text fill="#000000" font-family="sans-serif" font-size="14" font-style="italic" lengthAdjust="spacing" textLength="117" x="476" y="636.916">«Component(C4)»</text><text fill="#000000" font-family="sans-serif" font-size="14" lengthAdjust="spacing" textLength="113" x="478" y="654.5254">DeliveryController</text><rect fill="#FFFFFF" height="49.2188" rx="2.5" ry="2.5" style="stroke:#000000;stroke-width:0.5;" width="131" x="642" y="42.7031"/><text fill="#000000" font-family="sans-serif" font-size="14" font-style="italic" lengthAdjust="spacing" textLength="117" x="649" y="64.2363">«Component(C4)»</text><text fill="#000000" font-family="sans-serif" font-size="14" lengthAdjust="spacing" textLength="98" x="658.5" y="81.8457">DeliveryService</text><rect fill="#FFFFFF" height="49.2188" rx="2.5" ry="2.5" style="stroke:#000000;stroke-width:0.5;" width="131" x="642" y="615.3828"/><text fill="#000000" font-family="sans-serif" font-size="14" font-style="italic" lengthAdjust="spacing" textLength="117" x="649" y="636.916">«Component(C4)»</text><text fill="#000000" font-family="sans-serif" font-size="14" lengthAdjust="spacing" textLength="98" x="658.5" y="654.5254">DeliveryService</text><rect fill="#FFFFFF" height="49.2188" rx="2.5" ry="2.5" style="stroke:#000000;stroke-width:0.5;" width="131" x="783" y="42.7031"/><text fill="#000000" font-family="sans-serif" font-size="14" font-style="italic" lengthAdjust="spacing" textLength="117" x="790" y="64.2363">«Component(C4)»</text><text fill="#000000" font-family="sans-serif" font-size="14" lengthAdjust="spacing" textLength="114" x="791.5" y="81.8457">Delivery : Delivery</text><rect fill="#FFFFFF" height="49.2188" rx="2.5" ry="2.5" style="stroke:#000000;stroke-width:0.5;" width="131" x="783" y="615.3828"/><text fill="#000000" font-family="sans-serif" font-size="14" font-style="italic" lengthAdjust="spacing" textLength="117" x="790" y="636.916">«Component(C4)»</text><text fill="#000000" font-family="sans-serif" font-size="14" lengthAdjust="spacing" textLength="114" x="791.5" y="654.5254">Delivery : Delivery</text><rect fill="#FFFFFF" height="49.2188" rx="2.5" ry="2.5" style="stroke:#000000;stroke-width:0.5;" width="188" x="924" y="42.7031"/><text fill="#000000" font-family="sans-serif" font-size="14" font-style="italic" lengthAdjust="spacing" textLength="117" x="959.5" y="64.2363">«Component(C4)»</text><text fill="#000000" font-family="sans-serif" font-size="14" lengthAdjust="spacing" textLength="174" x="931" y="81.8457">DeliveryDTO : DeliveryDTO</text><rect fill="#FFFFFF" height="49.2188" rx="2.5" ry="2.5" style="stroke:#000000;stroke-width:0.5;" width="188" x="924" y="615.3828"/><text fill="#000000" font-family="sans-serif" font-size="14" font-style="italic" lengthAdjust="spacing" textLength="117" x="959.5" y="636.916">«Component(C4)»</text><text fill="#000000" font-family="sans-serif" font-size="14" lengthAdjust="spacing" textLength="174" x="931" y="654.5254">DeliveryDTO : DeliveryDTO</text><rect fill="#FFFFFF" height="49.2188" rx="2.5" ry="2.5" style="stroke:#000000;stroke-width:0.5;" width="133" x="1122" y="42.7031"/><text fill="#000000" font-family="sans-serif" font-size="14" font-style="italic" lengthAdjust="spacing" textLength="117" x="1130" y="64.2363">«Component(C4)»</text><text fill="#000000" font-family="sans-serif" font-size="14" lengthAdjust="spacing" textLength="119" x="1129" y="81.8457">DeliveryRepository</text><rect fill="#FFFFFF" height="49.2188" rx="2.5" ry="2.5" style="stroke:#000000;stroke-width:0.5;" width="133" x="1122" y="615.3828"/><text fill="#000000" font-family="sans-serif" font-size="14" font-style="italic" lengthAdjust="spacing" textLength="117" x="1130" y="636.916">«Component(C4)»</text><text fill="#000000" font-family="sans-serif" font-size="14" lengthAdjust="spacing" textLength="119" x="1129" y="654.5254">DeliveryRepository</text><rect fill="#FFFFFF" height="30.3516" style="stroke:#181818;stroke-width:1.0;" width="10" x="377.5" y="125.2734"/><rect fill="#FFFFFF" height="405.4063" style="stroke:#181818;stroke-width:1.0;" width="10" x="377.5" y="185.9766"/><rect fill="#FFFFFF" height="151.7578" style="stroke:#181818;stroke-width:1.0;" width="10" x="529.5" y="241.6797"/><rect fill="#FFFFFF" height="91.0547" style="stroke:#181818;stroke-width:1.0;" width="10" x="529.5" y="469.9766"/><rect fill="#FFFFFF" height="91.0547" style="stroke:#181818;stroke-width:1.0;" width="10" x="702.5" y="272.0313"/><rect fill="#FFFFFF" height="60.7031" style="stroke:#181818;stroke-width:1.0;" width="10" x="702.5" y="469.9766"/><rect fill="#FFFFFF" height="30.3516" style="stroke:#181818;stroke-width:1.0;" width="10" x="1183.5" y="302.3828"/><rect fill="#FFFFFF" height="30.3516" style="stroke:#181818;stroke-width:1.0;" width="10" x="1183.5" y="500.3281"/><polygon fill="#181818" points="365.5,121.2734,375.5,125.2734,365.5,129.2734,369.5,125.2734" style="stroke:#181818;stroke-width:1.0;"/><line style="stroke:#181818;stroke-width:1.0;" x1="89.5" x2="371.5" y1="125.2734" y2="125.2734"/><text fill="#000000" font-family="sans-serif" font-size="13" font-weight="bold" lengthAdjust="spacing" textLength="7" x="96.5" y="120.417">1</text><text fill="#000000" font-family="sans-serif" font-size="13" lengthAdjust="spacing" textLength="206" x="107.5" y="120.417">I want to list the details of a delivery</text><polygon fill="#181818" points="100.5,151.625,90.5,155.625,100.5,159.625,96.5,155.625" style="stroke:#181818;stroke-width:1.0;"/><line style="stroke:#181818;stroke-width:1.0;stroke-dasharray:2.0,2.0;" x1="94.5" x2="381.5" y1="155.625" y2="155.625"/><text fill="#000000" font-family="sans-serif" font-size="13" font-weight="bold" lengthAdjust="spacing" textLength="7" x="106.5" y="150.7686">2</text><text fill="#000000" font-family="sans-serif" font-size="13" lengthAdjust="spacing" textLength="167" x="117.5" y="150.7686">asks for the ID of the delivery</text><polygon fill="#181818" points="365.5,181.9766,375.5,185.9766,365.5,189.9766,369.5,185.9766" style="stroke:#181818;stroke-width:1.0;"/><line style="stroke:#181818;stroke-width:1.0;" x1="89.5" x2="371.5" y1="185.9766" y2="185.9766"/><text fill="#000000" font-family="sans-serif" font-size="13" font-weight="bold" lengthAdjust="spacing" textLength="7" x="96.5" y="181.1201">3</text><text fill="#000000" font-family="sans-serif" font-size="13" lengthAdjust="spacing" textLength="133" x="107.5" y="181.1201">inserts the delivery's ID</text><path d="M10,200.9766 L71,200.9766 L71,209.3281 L61,219.3281 L10,219.3281 L10,200.9766 " fill="#EEEEEE" style="stroke:#000000;stroke-width:1.5;"/><rect fill="none" height="398.4063" style="stroke:#000000;stroke-width:1.5;" width="1255" x="10" y="200.9766"/><text fill="#000000" font-family="sans-serif" font-size="13" font-weight="bold" lengthAdjust="spacing" textLength="16" x="25" y="215.4717">alt</text><text fill="#000000" font-family="sans-serif" font-size="11" font-weight="bold" lengthAdjust="spacing" textLength="199" x="86" y="214.3955">[If the Delivery exists in the system]</text><polygon fill="#181818" points="517.5,237.6797,527.5,241.6797,517.5,245.6797,521.5,241.6797" style="stroke:#181818;stroke-width:1.0;"/><line style="stroke:#181818;stroke-width:1.0;" x1="387.5" x2="523.5" y1="241.6797" y2="241.6797"/><text fill="#000000" font-family="sans-serif" font-size="13" font-weight="bold" lengthAdjust="spacing" textLength="7" x="394.5" y="236.8232">4</text><text fill="#000000" font-family="sans-serif" font-size="13" lengthAdjust="spacing" textLength="97" x="405.5" y="236.8232">GET GetByID(id)</text><polygon fill="#181818" points="690.5,268.0313,700.5,272.0313,690.5,276.0313,694.5,272.0313" style="stroke:#181818;stroke-width:1.0;"/><line style="stroke:#181818;stroke-width:1.0;" x1="539.5" x2="696.5" y1="272.0313" y2="272.0313"/><text fill="#000000" font-family="sans-serif" font-size="13" font-weight="bold" lengthAdjust="spacing" textLength="7" x="546.5" y="267.1748">5</text><text fill="#000000" font-family="sans-serif" font-size="13" lengthAdjust="spacing" textLength="131" x="557.5" y="267.1748">GetDelivery(DeliveryID)</text><polygon fill="#181818" points="1171.5,298.3828,1181.5,302.3828,1171.5,306.3828,1175.5,302.3828" style="stroke:#181818;stroke-width:1.0;"/><line style="stroke:#181818;stroke-width:1.0;" x1="712.5" x2="1177.5" y1="302.3828" y2="302.3828"/><text fill="#000000" font-family="sans-serif" font-size="13" font-weight="bold" lengthAdjust="spacing" textLength="7" x="719.5" y="297.5264">6</text><text fill="#000000" font-family="sans-serif" font-size="13" lengthAdjust="spacing" textLength="114" x="730.5" y="297.5264">GetByID(DeliveryID)</text><polygon fill="#181818" points="723.5,328.7344,713.5,332.7344,723.5,336.7344,719.5,332.7344" style="stroke:#181818;stroke-width:1.0;"/><line style="stroke:#181818;stroke-width:1.0;stroke-dasharray:2.0,2.0;" x1="717.5" x2="1187.5" y1="332.7344" y2="332.7344"/><text fill="#000000" font-family="sans-serif" font-size="13" font-weight="bold" lengthAdjust="spacing" textLength="7" x="729.5" y="327.8779">7</text><text fill="#000000" font-family="sans-serif" font-size="13" lengthAdjust="spacing" textLength="43" x="740.5" y="327.8779">delivery</text><polygon fill="#181818" points="550.5,359.0859,540.5,363.0859,550.5,367.0859,546.5,363.0859" style="stroke:#181818;stroke-width:1.0;"/><line style="stroke:#181818;stroke-width:1.0;stroke-dasharray:2.0,2.0;" x1="544.5" x2="706.5" y1="363.0859" y2="363.0859"/><text fill="#000000" font-family="sans-serif" font-size="13" font-weight="bold" lengthAdjust="spacing" textLength="7" x="556.5" y="358.2295">8</text><text fill="#000000" font-family="sans-serif" font-size="13" lengthAdjust="spacing" textLength="92" x="567.5" y="358.2295">delivery.toDTO()</text><polygon fill="#181818" points="398.5,389.4375,388.5,393.4375,398.5,397.4375,394.5,393.4375" style="stroke:#181818;stroke-width:1.0;"/><line style="stroke:#181818;stroke-width:1.0;stroke-dasharray:2.0,2.0;" x1="392.5" x2="533.5" y1="393.4375" y2="393.4375"/><text fill="#000000" font-family="sans-serif" font-size="13" font-weight="bold" lengthAdjust="spacing" textLength="7" x="404.5" y="388.5811">9</text><text fill="#000000" font-family="sans-serif" font-size="13" lengthAdjust="spacing" textLength="44" x="415.5" y="388.5811">200 OK</text><polygon fill="#181818" points="100.5,419.7891,90.5,423.7891,100.5,427.7891,96.5,423.7891" style="stroke:#181818;stroke-width:1.0;"/><line style="stroke:#181818;stroke-width:1.0;stroke-dasharray:2.0,2.0;" x1="94.5" x2="376.5" y1="423.7891" y2="423.7891"/><text fill="#000000" font-family="sans-serif" font-size="13" font-weight="bold" lengthAdjust="spacing" textLength="14" x="106.5" y="418.9326">10</text><text fill="#000000" font-family="sans-serif" font-size="13" lengthAdjust="spacing" textLength="246" x="124.5" y="418.9326">informs about the success of the operation</text><line style="stroke:#000000;stroke-width:1.0;stroke-dasharray:2.0,2.0;" x1="10" x2="1265" y1="432.7891" y2="432.7891"/><text fill="#000000" font-family="sans-serif" font-size="11" font-weight="bold" lengthAdjust="spacing" textLength="232" x="15" y="444.208">[If a Delivery does not exist in the system]</text><polygon fill="#181818" points="690.5,465.9766,700.5,469.9766,690.5,473.9766,694.5,469.9766" style="stroke:#181818;stroke-width:1.0;"/><line style="stroke:#181818;stroke-width:1.0;" x1="539.5" x2="696.5" y1="469.9766" y2="469.9766"/><text fill="#000000" font-family="sans-serif" font-size="13" font-weight="bold" lengthAdjust="spacing" textLength="14" x="546.5" y="465.1201">11</text><text fill="#000000" font-family="sans-serif" font-size="13" lengthAdjust="spacing" textLength="131" x="564.5" y="465.1201">GetDelivery(DeliveryID)</text><polygon fill="#181818" points="1171.5,496.3281,1181.5,500.3281,1171.5,504.3281,1175.5,500.3281" style="stroke:#181818;stroke-width:1.0;"/><line style="stroke:#181818;stroke-width:1.0;" x1="712.5" x2="1177.5" y1="500.3281" y2="500.3281"/><text fill="#000000" font-family="sans-serif" font-size="13" font-weight="bold" lengthAdjust="spacing" textLength="14" x="719.5" y="495.4717">12</text><text fill="#000000" font-family="sans-serif" font-size="13" lengthAdjust="spacing" textLength="114" x="737.5" y="495.4717">GetByID(DeliveryID)</text><polygon fill="#181818" points="550.5,526.6797,540.5,530.6797,550.5,534.6797,546.5,530.6797" style="stroke:#181818;stroke-width:1.0;"/><line style="stroke:#181818;stroke-width:1.0;stroke-dasharray:2.0,2.0;" x1="544.5" x2="706.5" y1="530.6797" y2="530.6797"/><text fill="#000000" font-family="sans-serif" font-size="13" font-weight="bold" lengthAdjust="spacing" textLength="14" x="556.5" y="525.8232">13</text><text fill="#000000" font-family="sans-serif" font-size="13" lengthAdjust="spacing" textLength="20" x="574.5" y="525.8232">null</text><polygon fill="#181818" points="398.5,557.0313,388.5,561.0313,398.5,565.0313,394.5,561.0313" style="stroke:#181818;stroke-width:1.0;"/><line style="stroke:#181818;stroke-width:1.0;stroke-dasharray:2.0,2.0;" x1="392.5" x2="533.5" y1="561.0313" y2="561.0313"/><text fill="#000000" font-family="sans-serif" font-size="13" font-weight="bold" lengthAdjust="spacing" textLength="14" x="404.5" y="556.1748">14</text><text fill="#000000" font-family="sans-serif" font-size="13" lengthAdjust="spacing" textLength="100" x="422.5" y="556.1748">404 NOT FOUND</text><polygon fill="#181818" points="100.5,587.3828,90.5,591.3828,100.5,595.3828,96.5,591.3828" style="stroke:#181818;stroke-width:1.0;"/><line style="stroke:#181818;stroke-width:1.0;stroke-dasharray:2.0,2.0;" x1="94.5" x2="381.5" y1="591.3828" y2="591.3828"/><text fill="#000000" font-family="sans-serif" font-size="13" font-weight="bold" lengthAdjust="spacing" textLength="14" x="106.5" y="586.5264">15</text><text fill="#000000" font-family="sans-serif" font-size="13" lengthAdjust="spacing" textLength="213" x="124.5" y="586.5264">informs about the fail of the operation</text><!--MD5=[3d619e6ee85a8fbd453348392dd8a6e0]
@startuml getDeliveryByIDSD
autonumber

skinparam sequence {
ParticipantBorderColor black
ParticipantBackgroundColor white
}

actor "Warehouse Manager" as admin


box "<<System(C4)>>\n       EletricGo" #LightYellow
participant SPA as ui <<Container(C4)>>
box "<<Container(C4)>>\nWarehouse Management" #LightGreen
participant DeliveryController as  CTL <<Component(C4)>>
participant DeliveryService as  SV <<Component(C4)>>
participant "Delivery : Delivery" as  W <<Component(C4)>>
participant "DeliveryDTO : DeliveryDTO" as  DTO <<Component(C4)>>
participant DeliveryRepository as  WR <<Component(C4)>>
end box
end box

admin -> ui: I want to list the details of a delivery
activate ui

ui - -> admin: asks for the ID of the delivery
deactivate ui

admin -> ui: inserts the delivery's ID

activate ui

alt If the Delivery exists in the system

ui -> CTL: GET GetByID(id)
activate CTL
CTL -> SV : GetDelivery(DeliveryID)
activate SV

SV -> WR : GetByID(DeliveryID)
activate WR

WR - -> SV : delivery
deactivate WR


SV - -> CTL : delivery.toDTO()
deactivate WR

deactivate SV

CTL - -> ui: 200 OK
deactivate CTL


ui - -> admin: informs about the success of the operation


else If a Delivery does not exist in the system

CTL -> SV : GetDelivery(DeliveryID)
activate CTL
activate SV



SV -> WR : GetByID(DeliveryID)
activate WR


SV - -> CTL : null
deactivate WR
deactivate SV

CTL - -> ui: 404 NOT FOUND
deactivate CTL

ui - -> admin: informs about the fail of the operation
deactivate ui

end 

deactivate admin

@enduml

PlantUML version 1.2022.12(Sun Oct 23 18:12:26 GMT 2022)
(GPL source distribution)
Java Runtime: OpenJDK Runtime Environment
JVM: OpenJDK 64-Bit Server VM
Default Encoding: Cp1252
Language: pt
Country: PT
--></g></svg>