<?xml version="1.0" encoding="UTF-8" standalone="no"?><svg xmlns="http://www.w3.org/2000/svg" xmlns:xlink="http://www.w3.org/1999/xlink" contentStyleType="text/css" height="797px" preserveAspectRatio="none" style="width:743px;height:797px;background:#FFFFFF;" version="1.1" viewBox="0 0 743 797" width="743px" zoomAndPan="magnify"><defs/><g><rect fill="#DDDDDD" height="785.3672" style="stroke:#181818;stroke-width:0.5;" width="340" x="276.5" y="6"/><text fill="#000000" font-family="sans-serif" font-size="13" font-weight="bold" lengthAdjust="spacing" textLength="114" x="389.5" y="19.4951">&lt;&lt;EletricGo(C4)&gt;&gt;</text><text fill="#000000" font-family="sans-serif" font-size="13" font-weight="bold" lengthAdjust="spacing" textLength="46" x="421.5" y="35.8467">System</text><rect fill="#FFFFFF" height="597.8359" style="stroke:#181818;stroke-width:1.0;" width="10" x="37.5" y="102.9219"/><rect fill="#FFFFFF" height="575.4844" style="stroke:#181818;stroke-width:1.0;" width="10" x="335.5" y="125.2734"/><rect fill="#FFFFFF" height="30.3516" style="stroke:#181818;stroke-width:1.0;" width="10" x="547.5" y="180.9766"/><rect fill="#FFFFFF" height="55.7031" style="stroke:#181818;stroke-width:1.0;" width="10" x="547.5" y="446.625"/><rect fill="#FFFFFF" height="46.1875" style="stroke:#181818;stroke-width:1.0;" width="10" x="547.5" y="532.6797"/><rect fill="#FFFFFF" height="46.1875" style="stroke:#181818;stroke-width:1.0;" width="10" x="547.5" y="609.2188"/><rect fill="#FFFFFF" height="30.3516" style="stroke:#181818;stroke-width:1.0;" width="10" x="669.5" y="257.5156"/><rect fill="none" height="155.5938" style="stroke:#000000;stroke-width:1.5;" width="466" x="270.5" y="140.2734"/><rect fill="none" height="232.1328" style="stroke:#000000;stroke-width:1.5;" width="612.5" x="10" y="461.625"/><line style="stroke:#181818;stroke-width:0.5;stroke-dasharray:5.0,5.0;" x1="42" x2="42" y1="92.9219" y2="710.7578"/><line style="stroke:#181818;stroke-width:0.5;stroke-dasharray:5.0,5.0;" x1="340.5" x2="340.5" y1="92.9219" y2="710.7578"/><line style="stroke:#181818;stroke-width:0.5;stroke-dasharray:5.0,5.0;" x1="552.5" x2="552.5" y1="92.9219" y2="710.7578"/><line style="stroke:#181818;stroke-width:0.5;stroke-dasharray:5.0,5.0;" x1="674.5" x2="674.5" y1="92.9219" y2="710.7578"/><text fill="#000000" font-family="sans-serif" font-size="14" lengthAdjust="spacing" textLength="39" x="20" y="89.8457">Admin</text><ellipse cx="42.5" cy="23.8125" fill="#E2E2F0" rx="8" ry="8" style="stroke:#181818;stroke-width:0.5;"/><path d="M42.5,31.8125 L42.5,58.8125 M29.5,39.8125 L55.5,39.8125 M42.5,58.8125 L29.5,73.8125 M42.5,58.8125 L55.5,73.8125 " fill="none" style="stroke:#181818;stroke-width:0.5;"/><text fill="#000000" font-family="sans-serif" font-size="14" lengthAdjust="spacing" textLength="39" x="20" y="724.291">Admin</text><ellipse cx="42.5" cy="735.8672" fill="#E2E2F0" rx="8" ry="8" style="stroke:#181818;stroke-width:0.5;"/><path d="M42.5,743.8672 L42.5,770.8672 M29.5,751.8672 L55.5,751.8672 M42.5,770.8672 L29.5,785.8672 M42.5,770.8672 L55.5,785.8672 " fill="none" style="stroke:#181818;stroke-width:0.5;"/><rect fill="#FFFFFF" height="49.2188" rx="2.5" ry="2.5" style="stroke:#000000;stroke-width:0.5;" width="120" x="280.5" y="42.7031"/><text fill="#000000" font-family="sans-serif" font-size="14" font-style="italic" lengthAdjust="spacing" textLength="106" x="287.5" y="64.2363">«Container(C4)»</text><text fill="#000000" font-family="sans-serif" font-size="14" lengthAdjust="spacing" textLength="12" x="334.5" y="81.8457">UI</text><rect fill="#FFFFFF" height="49.2188" rx="2.5" ry="2.5" style="stroke:#000000;stroke-width:0.5;" width="120" x="280.5" y="709.7578"/><text fill="#000000" font-family="sans-serif" font-size="14" font-style="italic" lengthAdjust="spacing" textLength="106" x="287.5" y="731.291">«Container(C4)»</text><text fill="#000000" font-family="sans-serif" font-size="14" lengthAdjust="spacing" textLength="12" x="334.5" y="748.9004">UI</text><rect fill="#FFFFFF" height="49.2188" rx="2.5" ry="2.5" style="stroke:#000000;stroke-width:0.5;" width="120" x="492.5" y="42.7031"/><text fill="#000000" font-family="sans-serif" font-size="14" font-style="italic" lengthAdjust="spacing" textLength="106" x="499.5" y="64.2363">«Container(C4)»</text><text fill="#000000" font-family="sans-serif" font-size="14" lengthAdjust="spacing" textLength="36" x="534.5" y="81.8457">AUTH</text><rect fill="#FFFFFF" height="49.2188" rx="2.5" ry="2.5" style="stroke:#000000;stroke-width:0.5;" width="120" x="492.5" y="709.7578"/><text fill="#000000" font-family="sans-serif" font-size="14" font-style="italic" lengthAdjust="spacing" textLength="106" x="499.5" y="731.291">«Container(C4)»</text><text fill="#000000" font-family="sans-serif" font-size="14" lengthAdjust="spacing" textLength="36" x="534.5" y="748.9004">AUTH</text><rect fill="#FFFFFF" height="49.2188" rx="2.5" ry="2.5" style="stroke:#000000;stroke-width:0.5;" width="104" x="622.5" y="42.7031"/><text fill="#000000" font-family="sans-serif" font-size="14" font-style="italic" lengthAdjust="spacing" textLength="90" x="629.5" y="64.2363">«System(C4)»</text><text fill="#000000" font-family="sans-serif" font-size="14" lengthAdjust="spacing" textLength="46" x="651.5" y="81.8457">Google</text><rect fill="#FFFFFF" height="49.2188" rx="2.5" ry="2.5" style="stroke:#000000;stroke-width:0.5;" width="104" x="622.5" y="709.7578"/><text fill="#000000" font-family="sans-serif" font-size="14" font-style="italic" lengthAdjust="spacing" textLength="90" x="629.5" y="731.291">«System(C4)»</text><text fill="#000000" font-family="sans-serif" font-size="14" lengthAdjust="spacing" textLength="46" x="651.5" y="748.9004">Google</text><rect fill="#FFFFFF" height="597.8359" style="stroke:#181818;stroke-width:1.0;" width="10" x="37.5" y="102.9219"/><rect fill="#FFFFFF" height="575.4844" style="stroke:#181818;stroke-width:1.0;" width="10" x="335.5" y="125.2734"/><rect fill="#FFFFFF" height="30.3516" style="stroke:#181818;stroke-width:1.0;" width="10" x="547.5" y="180.9766"/><rect fill="#FFFFFF" height="55.7031" style="stroke:#181818;stroke-width:1.0;" width="10" x="547.5" y="446.625"/><rect fill="#FFFFFF" height="46.1875" style="stroke:#181818;stroke-width:1.0;" width="10" x="547.5" y="532.6797"/><rect fill="#FFFFFF" height="46.1875" style="stroke:#181818;stroke-width:1.0;" width="10" x="547.5" y="609.2188"/><rect fill="#FFFFFF" height="30.3516" style="stroke:#181818;stroke-width:1.0;" width="10" x="669.5" y="257.5156"/><polygon fill="#181818" points="323.5,121.2734,333.5,125.2734,323.5,129.2734,327.5,125.2734" style="stroke:#181818;stroke-width:1.0;"/><line style="stroke:#181818;stroke-width:1.0;" x1="47.5" x2="329.5" y1="125.2734" y2="125.2734"/><text fill="#000000" font-family="sans-serif" font-size="13" font-weight="bold" lengthAdjust="spacing" textLength="7" x="54.5" y="120.417">1</text><text fill="#000000" font-family="sans-serif" font-size="13" lengthAdjust="spacing" textLength="80" x="65.5" y="120.417">I want to login</text><path d="M270.5,140.2734 L331.5,140.2734 L331.5,148.625 L321.5,158.625 L270.5,158.625 L270.5,140.2734 " fill="#EEEEEE" style="stroke:#000000;stroke-width:1.5;"/><rect fill="none" height="155.5938" style="stroke:#000000;stroke-width:1.5;" width="466" x="270.5" y="140.2734"/><text fill="#000000" font-family="sans-serif" font-size="13" font-weight="bold" lengthAdjust="spacing" textLength="16" x="285.5" y="154.7686">alt</text><text fill="#000000" font-family="sans-serif" font-size="11" font-weight="bold" lengthAdjust="spacing" textLength="266" x="346.5" y="153.6924">[Login through email and password in EletricGo]</text><polygon fill="#181818" points="535.5,176.9766,545.5,180.9766,535.5,184.9766,539.5,180.9766" style="stroke:#181818;stroke-width:1.0;"/><line style="stroke:#181818;stroke-width:1.0;" x1="345.5" x2="541.5" y1="180.9766" y2="180.9766"/><text fill="#000000" font-family="sans-serif" font-size="13" font-weight="bold" lengthAdjust="spacing" textLength="7" x="352.5" y="176.1201">2</text><text fill="#000000" font-family="sans-serif" font-size="13" lengthAdjust="spacing" textLength="172" x="363.5" y="176.1201">POST Login(email, password)</text><polygon fill="#181818" points="356.5,207.3281,346.5,211.3281,356.5,215.3281,352.5,211.3281" style="stroke:#181818;stroke-width:1.0;"/><line style="stroke:#181818;stroke-width:1.0;stroke-dasharray:2.0,2.0;" x1="350.5" x2="551.5" y1="211.3281" y2="211.3281"/><text fill="#000000" font-family="sans-serif" font-size="13" font-weight="bold" lengthAdjust="spacing" textLength="7" x="362.5" y="206.4717">3</text><text fill="#000000" font-family="sans-serif" font-size="13" lengthAdjust="spacing" textLength="44" x="373.5" y="206.4717">200 OK</text><line style="stroke:#000000;stroke-width:1.0;stroke-dasharray:2.0,2.0;" x1="270.5" x2="736.5" y1="220.3281" y2="220.3281"/><text fill="#000000" font-family="sans-serif" font-size="11" font-weight="bold" lengthAdjust="spacing" textLength="128" x="275.5" y="231.7471">[Login through Google]</text><polygon fill="#181818" points="657.5,253.5156,667.5,257.5156,657.5,261.5156,661.5,257.5156" style="stroke:#181818;stroke-width:1.0;"/><line style="stroke:#181818;stroke-width:1.0;" x1="345.5" x2="663.5" y1="257.5156" y2="257.5156"/><text fill="#000000" font-family="sans-serif" font-size="13" font-weight="bold" lengthAdjust="spacing" textLength="7" x="352.5" y="252.6592">4</text><text fill="#000000" font-family="sans-serif" font-size="13" lengthAdjust="spacing" textLength="153" x="363.5" y="252.6592">Login with Google account</text><polygon fill="#181818" points="356.5,283.8672,346.5,287.8672,356.5,291.8672,352.5,287.8672" style="stroke:#181818;stroke-width:1.0;"/><line style="stroke:#181818;stroke-width:1.0;stroke-dasharray:2.0,2.0;" x1="350.5" x2="673.5" y1="287.8672" y2="287.8672"/><text fill="#000000" font-family="sans-serif" font-size="13" font-weight="bold" lengthAdjust="spacing" textLength="7" x="362.5" y="283.0107">5</text><text fill="#000000" font-family="sans-serif" font-size="13" lengthAdjust="spacing" textLength="44" x="373.5" y="283.0107">200 OK</text><polygon fill="#181818" points="58.5,321.2188,48.5,325.2188,58.5,329.2188,54.5,325.2188" style="stroke:#181818;stroke-width:1.0;"/><line style="stroke:#181818;stroke-width:1.0;stroke-dasharray:2.0,2.0;" x1="52.5" x2="334.5" y1="325.2188" y2="325.2188"/><text fill="#000000" font-family="sans-serif" font-size="13" font-weight="bold" lengthAdjust="spacing" textLength="7" x="64.5" y="320.3623">6</text><text fill="#000000" font-family="sans-serif" font-size="13" lengthAdjust="spacing" textLength="198" x="75.5" y="320.3623">informs about the success of login</text><polygon fill="#181818" points="323.5,351.5703,333.5,355.5703,323.5,359.5703,327.5,355.5703" style="stroke:#181818;stroke-width:1.0;"/><line style="stroke:#181818;stroke-width:1.0;" x1="47.5" x2="329.5" y1="355.5703" y2="355.5703"/><text fill="#000000" font-family="sans-serif" font-size="13" font-weight="bold" lengthAdjust="spacing" textLength="7" x="54.5" y="350.7139">7</text><text fill="#000000" font-family="sans-serif" font-size="13" lengthAdjust="spacing" textLength="158" x="65.5" y="350.7139">I want to create a new User</text><polygon fill="#181818" points="58.5,381.9219,48.5,385.9219,58.5,389.9219,54.5,385.9219" style="stroke:#181818;stroke-width:1.0;"/><line style="stroke:#181818;stroke-width:1.0;stroke-dasharray:2.0,2.0;" x1="52.5" x2="334.5" y1="385.9219" y2="385.9219"/><text fill="#000000" font-family="sans-serif" font-size="13" font-weight="bold" lengthAdjust="spacing" textLength="7" x="64.5" y="381.0654">8</text><text fill="#000000" font-family="sans-serif" font-size="13" lengthAdjust="spacing" textLength="208" x="75.5" y="381.0654">asks for the details on the new User</text><polygon fill="#181818" points="323.5,412.2734,333.5,416.2734,323.5,420.2734,327.5,416.2734" style="stroke:#181818;stroke-width:1.0;"/><line style="stroke:#181818;stroke-width:1.0;" x1="47.5" x2="329.5" y1="416.2734" y2="416.2734"/><text fill="#000000" font-family="sans-serif" font-size="13" font-weight="bold" lengthAdjust="spacing" textLength="7" x="54.5" y="411.417">9</text><text fill="#000000" font-family="sans-serif" font-size="13" lengthAdjust="spacing" textLength="244" x="65.5" y="411.417">inserts the information about the new User</text><polygon fill="#181818" points="535.5,442.625,545.5,446.625,535.5,450.625,539.5,446.625" style="stroke:#181818;stroke-width:1.0;"/><line style="stroke:#181818;stroke-width:1.0;" x1="345.5" x2="541.5" y1="446.625" y2="446.625"/><text fill="#000000" font-family="sans-serif" font-size="13" font-weight="bold" lengthAdjust="spacing" textLength="14" x="352.5" y="441.7686">10</text><text fill="#000000" font-family="sans-serif" font-size="13" lengthAdjust="spacing" textLength="163" x="370.5" y="441.7686">POST CreateUser(userDTO)</text><path d="M10,461.625 L71,461.625 L71,469.9766 L61,479.9766 L10,479.9766 L10,461.625 " fill="#EEEEEE" style="stroke:#000000;stroke-width:1.5;"/><rect fill="none" height="232.1328" style="stroke:#000000;stroke-width:1.5;" width="612.5" x="10" y="461.625"/><text fill="#000000" font-family="sans-serif" font-size="13" font-weight="bold" lengthAdjust="spacing" textLength="16" x="25" y="476.1201">alt</text><text fill="#000000" font-family="sans-serif" font-size="11" font-weight="bold" lengthAdjust="spacing" textLength="219" x="86" y="475.0439">[If the User doesn't exist in the system]</text><polygon fill="#181818" points="356.5,498.3281,346.5,502.3281,356.5,506.3281,352.5,502.3281" style="stroke:#181818;stroke-width:1.0;"/><line style="stroke:#181818;stroke-width:1.0;stroke-dasharray:2.0,2.0;" x1="350.5" x2="551.5" y1="502.3281" y2="502.3281"/><text fill="#000000" font-family="sans-serif" font-size="13" font-weight="bold" lengthAdjust="spacing" textLength="14" x="362.5" y="497.4717">11</text><text fill="#000000" font-family="sans-serif" font-size="13" lengthAdjust="spacing" textLength="105" x="380.5" y="497.4717">200 OK(response)</text><polygon fill="#181818" points="58.5,528.6797,48.5,532.6797,58.5,536.6797,54.5,532.6797" style="stroke:#181818;stroke-width:1.0;"/><line style="stroke:#181818;stroke-width:1.0;stroke-dasharray:2.0,2.0;" x1="52.5" x2="334.5" y1="532.6797" y2="532.6797"/><text fill="#000000" font-family="sans-serif" font-size="13" font-weight="bold" lengthAdjust="spacing" textLength="14" x="64.5" y="527.8232">12</text><text fill="#000000" font-family="sans-serif" font-size="13" lengthAdjust="spacing" textLength="246" x="82.5" y="527.8232">informs about the success of the operation</text><line style="stroke:#000000;stroke-width:1.0;stroke-dasharray:2.0,2.0;" x1="10" x2="622.5" y1="541.6797" y2="541.6797"/><text fill="#000000" font-family="sans-serif" font-size="11" font-weight="bold" lengthAdjust="spacing" textLength="224" x="15" y="553.0986">[If the user already exists in the system]</text><polygon fill="#181818" points="356.5,574.8672,346.5,578.8672,356.5,582.8672,352.5,578.8672" style="stroke:#181818;stroke-width:1.0;"/><line style="stroke:#181818;stroke-width:1.0;stroke-dasharray:2.0,2.0;" x1="350.5" x2="551.5" y1="578.8672" y2="578.8672"/><text fill="#000000" font-family="sans-serif" font-size="13" font-weight="bold" lengthAdjust="spacing" textLength="14" x="362.5" y="574.0107">13</text><text fill="#000000" font-family="sans-serif" font-size="13" lengthAdjust="spacing" textLength="100" x="380.5" y="574.0107">400 Bad Request</text><polygon fill="#181818" points="58.5,605.2188,48.5,609.2188,58.5,613.2188,54.5,609.2188" style="stroke:#181818;stroke-width:1.0;"/><line style="stroke:#181818;stroke-width:1.0;stroke-dasharray:2.0,2.0;" x1="52.5" x2="334.5" y1="609.2188" y2="609.2188"/><text fill="#000000" font-family="sans-serif" font-size="13" font-weight="bold" lengthAdjust="spacing" textLength="14" x="64.5" y="604.3623">14</text><text fill="#000000" font-family="sans-serif" font-size="13" lengthAdjust="spacing" textLength="215" x="82.5" y="604.3623">informs that the user was not created</text><line style="stroke:#000000;stroke-width:1.0;stroke-dasharray:2.0,2.0;" x1="10" x2="622.5" y1="618.2188" y2="618.2188"/><text fill="#000000" font-family="sans-serif" font-size="11" font-weight="bold" lengthAdjust="spacing" textLength="285" x="15" y="629.6377">[If the attributes do not respect the business rules]</text><polygon fill="#181818" points="356.5,651.4063,346.5,655.4063,356.5,659.4063,352.5,655.4063" style="stroke:#181818;stroke-width:1.0;"/><line style="stroke:#181818;stroke-width:1.0;stroke-dasharray:2.0,2.0;" x1="350.5" x2="551.5" y1="655.4063" y2="655.4063"/><text fill="#000000" font-family="sans-serif" font-size="13" font-weight="bold" lengthAdjust="spacing" textLength="14" x="362.5" y="650.5498">15</text><text fill="#000000" font-family="sans-serif" font-size="13" lengthAdjust="spacing" textLength="100" x="380.5" y="650.5498">400 Bad Request</text><polygon fill="#181818" points="58.5,681.7578,48.5,685.7578,58.5,689.7578,54.5,685.7578" style="stroke:#181818;stroke-width:1.0;"/><line style="stroke:#181818;stroke-width:1.0;stroke-dasharray:2.0,2.0;" x1="52.5" x2="334.5" y1="685.7578" y2="685.7578"/><text fill="#000000" font-family="sans-serif" font-size="13" font-weight="bold" lengthAdjust="spacing" textLength="14" x="64.5" y="680.9014">16</text><text fill="#000000" font-family="sans-serif" font-size="13" lengthAdjust="spacing" textLength="194" x="82.5" y="680.9014">informs which business rule failed</text><!--MD5=[eb7293692e167e2495924a6f9c6bb462]
@startuml createUserSD
autonumber

skinparam sequence {
    ParticipantBorderColor black
    ParticipantBackgroundColor white
}

actor "Admin" as admin


box "<<EletricGo(C4)>>\n\tSystem"
participant UI as system <<Container(C4)>>
participant AUTH as auth <<Container(C4)>>
end box

participant Google as Google <<System(C4)>>


activate admin
admin->system: I want to login
activate system

alt Login through email and password in EletricGo

system -> auth: POST Login(email, password)
activate auth

auth - -> system: 200 OK
deactivate auth

else Login through Google

system -> Google: Login with Google account
activate Google
Google - -> system: 200 OK
deactivate Google

end

system - -> admin: informs about the success of login



admin -> system: I want to create a new User

system - -> admin: asks for the details on the new User


admin -> system: inserts the information about the new User


system -> auth: POST CreateUser(userDTO)
activate auth

alt If the User doesn't exist in the system  
auth - -> system: 200 OK(response)
deactivate auth

system - -> admin: informs about the success of the operation


else If the user already exists in the system

activate auth
auth - -> system: 400 Bad Request
deactivate auth

system - -> admin: informs that the user was not created

else If the attributes do not respect the business rules

activate auth
auth - -> system: 400 Bad Request
deactivate auth

system - -> admin: informs which business rule failed

end

deactivate system
deactivate admin

@enduml

PlantUML version 1.2022.12(Sun Oct 23 18:12:26 GMT 2022)
(GPL source distribution)
Java Runtime: OpenJDK Runtime Environment
JVM: OpenJDK 64-Bit Server VM
Default Encoding: Cp1252
Language: pt
Country: PT
--></g></svg>