<?xml version="1.0" encoding="UTF-8" standalone="no"?><svg xmlns="http://www.w3.org/2000/svg" xmlns:xlink="http://www.w3.org/1999/xlink" contentStyleType="text/css" height="737px" preserveAspectRatio="none" style="width:739px;height:737px;background:#FFFFFF;" version="1.1" viewBox="0 0 739 737" width="739px" zoomAndPan="magnify"><defs/><g><rect fill="#DDDDDD" height="725.1797" style="stroke:#181818;stroke-width:0.5;" width="341" x="271.5" y="6"/><text fill="#000000" font-family="sans-serif" font-size="13" font-weight="bold" lengthAdjust="spacing" textLength="114" x="385" y="19.4951">&lt;&lt;EletricGo(C4)&gt;&gt;</text><text fill="#000000" font-family="sans-serif" font-size="13" font-weight="bold" lengthAdjust="spacing" textLength="46" x="417" y="35.8467">System</text><rect fill="#FFFFFF" height="537.6484" style="stroke:#181818;stroke-width:1.0;" width="10" x="32.5" y="102.9219"/><rect fill="#FFFFFF" height="515.2969" style="stroke:#181818;stroke-width:1.0;" width="10" x="330.5" y="125.2734"/><rect fill="#FFFFFF" height="30.3516" style="stroke:#181818;stroke-width:1.0;" width="10" x="543.5" y="180.9766"/><rect fill="#FFFFFF" height="55.7031" style="stroke:#181818;stroke-width:1.0;" width="10" x="543.5" y="446.625"/><rect fill="#FFFFFF" height="46.1875" style="stroke:#181818;stroke-width:1.0;" width="10" x="543.5" y="549.0313"/><rect fill="#FFFFFF" height="30.3516" style="stroke:#181818;stroke-width:1.0;" width="10" x="665.5" y="257.5156"/><rect fill="none" height="155.5938" style="stroke:#000000;stroke-width:1.5;" width="467" x="265.5" y="140.2734"/><rect fill="none" height="171.9453" style="stroke:#000000;stroke-width:1.5;" width="608.5" x="10" y="461.625"/><line style="stroke:#181818;stroke-width:0.5;stroke-dasharray:5.0,5.0;" x1="37" x2="37" y1="92.9219" y2="650.5703"/><line style="stroke:#181818;stroke-width:0.5;stroke-dasharray:5.0,5.0;" x1="335.5" x2="335.5" y1="92.9219" y2="650.5703"/><line style="stroke:#181818;stroke-width:0.5;stroke-dasharray:5.0,5.0;" x1="548.5" x2="548.5" y1="92.9219" y2="650.5703"/><line style="stroke:#181818;stroke-width:0.5;stroke-dasharray:5.0,5.0;" x1="670.5" x2="670.5" y1="92.9219" y2="650.5703"/><text fill="#000000" font-family="sans-serif" font-size="14" lengthAdjust="spacing" textLength="29" x="20" y="89.8457">User</text><ellipse cx="37.5" cy="23.8125" fill="#E2E2F0" rx="8" ry="8" style="stroke:#181818;stroke-width:0.5;"/><path d="M37.5,31.8125 L37.5,58.8125 M24.5,39.8125 L50.5,39.8125 M37.5,58.8125 L24.5,73.8125 M37.5,58.8125 L50.5,73.8125 " fill="none" style="stroke:#181818;stroke-width:0.5;"/><text fill="#000000" font-family="sans-serif" font-size="14" lengthAdjust="spacing" textLength="29" x="20" y="664.1035">User</text><ellipse cx="37.5" cy="675.6797" fill="#E2E2F0" rx="8" ry="8" style="stroke:#181818;stroke-width:0.5;"/><path d="M37.5,683.6797 L37.5,710.6797 M24.5,691.6797 L50.5,691.6797 M37.5,710.6797 L24.5,725.6797 M37.5,710.6797 L50.5,725.6797 " fill="none" style="stroke:#181818;stroke-width:0.5;"/><rect fill="#FFFFFF" height="49.2188" rx="2.5" ry="2.5" style="stroke:#000000;stroke-width:0.5;" width="120" x="275.5" y="42.7031"/><text fill="#000000" font-family="sans-serif" font-size="14" font-style="italic" lengthAdjust="spacing" textLength="106" x="282.5" y="64.2363">«Container(C4)»</text><text fill="#000000" font-family="sans-serif" font-size="14" lengthAdjust="spacing" textLength="12" x="329.5" y="81.8457">UI</text><rect fill="#FFFFFF" height="49.2188" rx="2.5" ry="2.5" style="stroke:#000000;stroke-width:0.5;" width="120" x="275.5" y="649.5703"/><text fill="#000000" font-family="sans-serif" font-size="14" font-style="italic" lengthAdjust="spacing" textLength="106" x="282.5" y="671.1035">«Container(C4)»</text><text fill="#000000" font-family="sans-serif" font-size="14" lengthAdjust="spacing" textLength="12" x="329.5" y="688.7129">UI</text><rect fill="#FFFFFF" height="49.2188" rx="2.5" ry="2.5" style="stroke:#000000;stroke-width:0.5;" width="120" x="488.5" y="42.7031"/><text fill="#000000" font-family="sans-serif" font-size="14" font-style="italic" lengthAdjust="spacing" textLength="106" x="495.5" y="64.2363">«Container(C4)»</text><text fill="#000000" font-family="sans-serif" font-size="14" lengthAdjust="spacing" textLength="36" x="530.5" y="81.8457">AUTH</text><rect fill="#FFFFFF" height="49.2188" rx="2.5" ry="2.5" style="stroke:#000000;stroke-width:0.5;" width="120" x="488.5" y="649.5703"/><text fill="#000000" font-family="sans-serif" font-size="14" font-style="italic" lengthAdjust="spacing" textLength="106" x="495.5" y="671.1035">«Container(C4)»</text><text fill="#000000" font-family="sans-serif" font-size="14" lengthAdjust="spacing" textLength="36" x="530.5" y="688.7129">AUTH</text><rect fill="#FFFFFF" height="49.2188" rx="2.5" ry="2.5" style="stroke:#000000;stroke-width:0.5;" width="104" x="618.5" y="42.7031"/><text fill="#000000" font-family="sans-serif" font-size="14" font-style="italic" lengthAdjust="spacing" textLength="90" x="625.5" y="64.2363">«System(C4)»</text><text fill="#000000" font-family="sans-serif" font-size="14" lengthAdjust="spacing" textLength="46" x="647.5" y="81.8457">Google</text><rect fill="#FFFFFF" height="49.2188" rx="2.5" ry="2.5" style="stroke:#000000;stroke-width:0.5;" width="104" x="618.5" y="649.5703"/><text fill="#000000" font-family="sans-serif" font-size="14" font-style="italic" lengthAdjust="spacing" textLength="90" x="625.5" y="671.1035">«System(C4)»</text><text fill="#000000" font-family="sans-serif" font-size="14" lengthAdjust="spacing" textLength="46" x="647.5" y="688.7129">Google</text><rect fill="#FFFFFF" height="537.6484" style="stroke:#181818;stroke-width:1.0;" width="10" x="32.5" y="102.9219"/><rect fill="#FFFFFF" height="515.2969" style="stroke:#181818;stroke-width:1.0;" width="10" x="330.5" y="125.2734"/><rect fill="#FFFFFF" height="30.3516" style="stroke:#181818;stroke-width:1.0;" width="10" x="543.5" y="180.9766"/><rect fill="#FFFFFF" height="55.7031" style="stroke:#181818;stroke-width:1.0;" width="10" x="543.5" y="446.625"/><rect fill="#FFFFFF" height="46.1875" style="stroke:#181818;stroke-width:1.0;" width="10" x="543.5" y="549.0313"/><rect fill="#FFFFFF" height="30.3516" style="stroke:#181818;stroke-width:1.0;" width="10" x="665.5" y="257.5156"/><polygon fill="#181818" points="318.5,121.2734,328.5,125.2734,318.5,129.2734,322.5,125.2734" style="stroke:#181818;stroke-width:1.0;"/><line style="stroke:#181818;stroke-width:1.0;" x1="42.5" x2="324.5" y1="125.2734" y2="125.2734"/><text fill="#000000" font-family="sans-serif" font-size="13" font-weight="bold" lengthAdjust="spacing" textLength="7" x="49.5" y="120.417">1</text><text fill="#000000" font-family="sans-serif" font-size="13" lengthAdjust="spacing" textLength="80" x="60.5" y="120.417">I want to login</text><path d="M265.5,140.2734 L326.5,140.2734 L326.5,148.625 L316.5,158.625 L265.5,158.625 L265.5,140.2734 " fill="#EEEEEE" style="stroke:#000000;stroke-width:1.5;"/><rect fill="none" height="155.5938" style="stroke:#000000;stroke-width:1.5;" width="467" x="265.5" y="140.2734"/><text fill="#000000" font-family="sans-serif" font-size="13" font-weight="bold" lengthAdjust="spacing" textLength="16" x="280.5" y="154.7686">alt</text><text fill="#000000" font-family="sans-serif" font-size="11" font-weight="bold" lengthAdjust="spacing" textLength="266" x="341.5" y="153.6924">[Login through email and password in EletricGo]</text><polygon fill="#181818" points="531.5,176.9766,541.5,180.9766,531.5,184.9766,535.5,180.9766" style="stroke:#181818;stroke-width:1.0;"/><line style="stroke:#181818;stroke-width:1.0;" x1="340.5" x2="537.5" y1="180.9766" y2="180.9766"/><text fill="#000000" font-family="sans-serif" font-size="13" font-weight="bold" lengthAdjust="spacing" textLength="7" x="347.5" y="176.1201">2</text><text fill="#000000" font-family="sans-serif" font-size="13" lengthAdjust="spacing" textLength="172" x="358.5" y="176.1201">POST Login(email, password)</text><polygon fill="#181818" points="351.5,207.3281,341.5,211.3281,351.5,215.3281,347.5,211.3281" style="stroke:#181818;stroke-width:1.0;"/><line style="stroke:#181818;stroke-width:1.0;stroke-dasharray:2.0,2.0;" x1="345.5" x2="547.5" y1="211.3281" y2="211.3281"/><text fill="#000000" font-family="sans-serif" font-size="13" font-weight="bold" lengthAdjust="spacing" textLength="7" x="357.5" y="206.4717">3</text><text fill="#000000" font-family="sans-serif" font-size="13" lengthAdjust="spacing" textLength="44" x="368.5" y="206.4717">200 OK</text><line style="stroke:#000000;stroke-width:1.0;stroke-dasharray:2.0,2.0;" x1="265.5" x2="732.5" y1="220.3281" y2="220.3281"/><text fill="#000000" font-family="sans-serif" font-size="11" font-weight="bold" lengthAdjust="spacing" textLength="128" x="270.5" y="231.7471">[Login through Google]</text><polygon fill="#181818" points="653.5,253.5156,663.5,257.5156,653.5,261.5156,657.5,257.5156" style="stroke:#181818;stroke-width:1.0;"/><line style="stroke:#181818;stroke-width:1.0;" x1="340.5" x2="659.5" y1="257.5156" y2="257.5156"/><text fill="#000000" font-family="sans-serif" font-size="13" font-weight="bold" lengthAdjust="spacing" textLength="7" x="347.5" y="252.6592">4</text><text fill="#000000" font-family="sans-serif" font-size="13" lengthAdjust="spacing" textLength="153" x="358.5" y="252.6592">Login with Google account</text><polygon fill="#181818" points="351.5,283.8672,341.5,287.8672,351.5,291.8672,347.5,287.8672" style="stroke:#181818;stroke-width:1.0;"/><line style="stroke:#181818;stroke-width:1.0;stroke-dasharray:2.0,2.0;" x1="345.5" x2="669.5" y1="287.8672" y2="287.8672"/><text fill="#000000" font-family="sans-serif" font-size="13" font-weight="bold" lengthAdjust="spacing" textLength="7" x="357.5" y="283.0107">5</text><text fill="#000000" font-family="sans-serif" font-size="13" lengthAdjust="spacing" textLength="44" x="368.5" y="283.0107">200 OK</text><polygon fill="#181818" points="53.5,321.2188,43.5,325.2188,53.5,329.2188,49.5,325.2188" style="stroke:#181818;stroke-width:1.0;"/><line style="stroke:#181818;stroke-width:1.0;stroke-dasharray:2.0,2.0;" x1="47.5" x2="329.5" y1="325.2188" y2="325.2188"/><text fill="#000000" font-family="sans-serif" font-size="13" font-weight="bold" lengthAdjust="spacing" textLength="7" x="59.5" y="320.3623">6</text><text fill="#000000" font-family="sans-serif" font-size="13" lengthAdjust="spacing" textLength="198" x="70.5" y="320.3623">informs about the success of login</text><polygon fill="#181818" points="318.5,351.5703,328.5,355.5703,318.5,359.5703,322.5,355.5703" style="stroke:#181818;stroke-width:1.0;"/><line style="stroke:#181818;stroke-width:1.0;" x1="42.5" x2="324.5" y1="355.5703" y2="355.5703"/><text fill="#000000" font-family="sans-serif" font-size="13" font-weight="bold" lengthAdjust="spacing" textLength="7" x="49.5" y="350.7139">7</text><text fill="#000000" font-family="sans-serif" font-size="13" lengthAdjust="spacing" textLength="189" x="60.5" y="350.7139">I want to delete my user account</text><polygon fill="#181818" points="53.5,381.9219,43.5,385.9219,53.5,389.9219,49.5,385.9219" style="stroke:#181818;stroke-width:1.0;"/><line style="stroke:#181818;stroke-width:1.0;stroke-dasharray:2.0,2.0;" x1="47.5" x2="329.5" y1="385.9219" y2="385.9219"/><text fill="#000000" font-family="sans-serif" font-size="13" font-weight="bold" lengthAdjust="spacing" textLength="7" x="59.5" y="381.0654">8</text><text fill="#000000" font-family="sans-serif" font-size="13" lengthAdjust="spacing" textLength="224" x="70.5" y="381.0654">displays the information about the user</text><polygon fill="#181818" points="318.5,412.2734,328.5,416.2734,318.5,420.2734,322.5,416.2734" style="stroke:#181818;stroke-width:1.0;"/><line style="stroke:#181818;stroke-width:1.0;" x1="42.5" x2="324.5" y1="416.2734" y2="416.2734"/><text fill="#000000" font-family="sans-serif" font-size="13" font-weight="bold" lengthAdjust="spacing" textLength="7" x="49.5" y="411.417">9</text><text fill="#000000" font-family="sans-serif" font-size="13" lengthAdjust="spacing" textLength="153" x="60.5" y="411.417">clicks on the delete button</text><polygon fill="#181818" points="531.5,442.625,541.5,446.625,531.5,450.625,535.5,446.625" style="stroke:#181818;stroke-width:1.0;"/><line style="stroke:#181818;stroke-width:1.0;" x1="340.5" x2="537.5" y1="446.625" y2="446.625"/><text fill="#000000" font-family="sans-serif" font-size="13" font-weight="bold" lengthAdjust="spacing" textLength="14" x="347.5" y="441.7686">10</text><text fill="#000000" font-family="sans-serif" font-size="13" lengthAdjust="spacing" textLength="166" x="365.5" y="441.7686">POST UpdateUser(userDTO)</text><path d="M10,461.625 L71,461.625 L71,469.9766 L61,479.9766 L10,479.9766 L10,461.625 " fill="#EEEEEE" style="stroke:#000000;stroke-width:1.5;"/><rect fill="none" height="171.9453" style="stroke:#000000;stroke-width:1.5;" width="608.5" x="10" y="461.625"/><text fill="#000000" font-family="sans-serif" font-size="13" font-weight="bold" lengthAdjust="spacing" textLength="16" x="25" y="476.1201">alt</text><text fill="#000000" font-family="sans-serif" font-size="11" font-weight="bold" lengthAdjust="spacing" textLength="358" x="86" y="475.0439">[If the User exists in the system and the operation is successful]</text><polygon fill="#181818" points="351.5,498.3281,341.5,502.3281,351.5,506.3281,347.5,502.3281" style="stroke:#181818;stroke-width:1.0;"/><line style="stroke:#181818;stroke-width:1.0;stroke-dasharray:2.0,2.0;" x1="345.5" x2="547.5" y1="502.3281" y2="502.3281"/><text fill="#000000" font-family="sans-serif" font-size="13" font-weight="bold" lengthAdjust="spacing" textLength="14" x="357.5" y="497.4717">11</text><text fill="#000000" font-family="sans-serif" font-size="13" lengthAdjust="spacing" textLength="105" x="375.5" y="497.4717">200 OK(response)</text><polygon fill="#181818" points="53.5,545.0313,43.5,549.0313,53.5,553.0313,49.5,549.0313" style="stroke:#181818;stroke-width:1.0;"/><line style="stroke:#181818;stroke-width:1.0;stroke-dasharray:2.0,2.0;" x1="47.5" x2="329.5" y1="549.0313" y2="549.0313"/><text fill="#000000" font-family="sans-serif" font-size="13" font-weight="bold" lengthAdjust="spacing" textLength="14" x="59.5" y="535.999">12</text><text fill="#000000" font-family="sans-serif" font-size="13" lengthAdjust="spacing" textLength="246" x="77.5" y="527.8232">informs about the success of the operation</text><text fill="#000000" font-family="sans-serif" font-size="13" lengthAdjust="spacing" textLength="175" x="81.5" y="544.1748">and redirects to the login page</text><line style="stroke:#000000;stroke-width:1.0;stroke-dasharray:2.0,2.0;" x1="10" x2="618.5" y1="558.0313" y2="558.0313"/><text fill="#000000" font-family="sans-serif" font-size="11" font-weight="bold" lengthAdjust="spacing" textLength="237" x="15" y="569.4502">[If there was a problem with the operation]</text><polygon fill="#181818" points="351.5,591.2188,341.5,595.2188,351.5,599.2188,347.5,595.2188" style="stroke:#181818;stroke-width:1.0;"/><line style="stroke:#181818;stroke-width:1.0;stroke-dasharray:2.0,2.0;" x1="345.5" x2="547.5" y1="595.2188" y2="595.2188"/><text fill="#000000" font-family="sans-serif" font-size="13" font-weight="bold" lengthAdjust="spacing" textLength="14" x="357.5" y="590.3623">13</text><text fill="#000000" font-family="sans-serif" font-size="13" lengthAdjust="spacing" textLength="100" x="375.5" y="590.3623">400 Bad Request</text><polygon fill="#181818" points="53.5,621.5703,43.5,625.5703,53.5,629.5703,49.5,625.5703" style="stroke:#181818;stroke-width:1.0;"/><line style="stroke:#181818;stroke-width:1.0;stroke-dasharray:2.0,2.0;" x1="47.5" x2="329.5" y1="625.5703" y2="625.5703"/><text fill="#000000" font-family="sans-serif" font-size="13" font-weight="bold" lengthAdjust="spacing" textLength="14" x="59.5" y="620.7139">14</text><text fill="#000000" font-family="sans-serif" font-size="13" lengthAdjust="spacing" textLength="214" x="77.5" y="620.7139">informs that the user was not deleted</text><!--MD5=[da3740fc82d5ef9f08e7b5f66446d0b0]
@startuml deleteUserSD
autonumber

skinparam sequence {
    ParticipantBorderColor black
    ParticipantBackgroundColor white
}

actor "User" as admin


box "<<EletricGo(C4)>>\n\tSystem"
participant UI as system <<Container(C4)>>
participant AUTH as auth <<Container(C4)>>
end box

participant Google as Google <<System(C4)>>


activate admin
admin->system: I want to login
activate system

alt Login through email and password in EletricGo

system -> auth: POST Login(email, password)
activate auth

auth - -> system: 200 OK
deactivate auth

else Login through Google

system -> Google: Login with Google account
activate Google
Google - -> system: 200 OK
deactivate Google

end

system - -> admin: informs about the success of login



admin -> system: I want to delete my user account

system - -> admin: displays the information about the user


admin -> system: clicks on the delete button


system -> auth: POST UpdateUser(userDTO)
activate auth

alt If the User exists in the system and the operation is successful 
auth - -> system: 200 OK(response)
deactivate auth

system - -> admin: informs about the success of the operation\n and redirects to the login page

else If there was a problem with the operation

activate auth
auth - -> system: 400 Bad Request
deactivate auth

system - -> admin: informs that the user was not deleted

end

deactivate system
deactivate admin

@enduml

PlantUML version 1.2022.12(Sun Oct 23 18:12:26 GMT 2022)
(GPL source distribution)
Java Runtime: OpenJDK Runtime Environment
JVM: OpenJDK 64-Bit Server VM
Default Encoding: Cp1252
Language: pt
Country: PT
--></g></svg>