<?xml version="1.0" encoding="UTF-8" standalone="no"?><svg xmlns="http://www.w3.org/2000/svg" xmlns:xlink="http://www.w3.org/1999/xlink" contentStyleType="text/css" height="583px" preserveAspectRatio="none" style="width:725px;height:583px;background:#FFFFFF;" version="1.1" viewBox="0 0 725 583" width="725px" zoomAndPan="magnify"><defs/><g><rect fill="#DDDDDD" height="571.4219" style="stroke:#181818;stroke-width:0.5;" width="391.5" x="320.5" y="6"/><text fill="#000000" font-family="sans-serif" font-size="13" font-weight="bold" lengthAdjust="spacing" textLength="114" x="459.25" y="19.4951">&lt;&lt;EletricGo(C4)&gt;&gt;</text><text fill="#000000" font-family="sans-serif" font-size="13" font-weight="bold" lengthAdjust="spacing" textLength="46" x="491.25" y="35.8467">System</text><rect fill="#FFFFFF" height="30.3516" style="stroke:#181818;stroke-width:1.0;" width="10" x="379.5" y="125.2734"/><rect fill="#FFFFFF" height="300.8359" style="stroke:#181818;stroke-width:1.0;" width="10" x="379.5" y="185.9766"/><rect fill="#FFFFFF" height="55.7031" style="stroke:#181818;stroke-width:1.0;" width="10" x="618.5" y="216.3281"/><rect fill="#FFFFFF" height="46.1875" style="stroke:#181818;stroke-width:1.0;" width="10" x="618.5" y="318.7344"/><rect fill="#FFFFFF" height="46.1875" style="stroke:#181818;stroke-width:1.0;" width="10" x="618.5" y="395.2734"/><rect fill="none" height="248.4844" style="stroke:#000000;stroke-width:1.5;" width="708" x="10" y="231.3281"/><line style="stroke:#181818;stroke-width:0.5;stroke-dasharray:5.0,5.0;" x1="89" x2="89" y1="92.9219" y2="496.8125"/><line style="stroke:#181818;stroke-width:0.5;stroke-dasharray:5.0,5.0;" x1="384.5" x2="384.5" y1="92.9219" y2="496.8125"/><line style="stroke:#181818;stroke-width:0.5;stroke-dasharray:5.0,5.0;" x1="623" x2="623" y1="92.9219" y2="496.8125"/><text fill="#000000" font-family="sans-serif" font-size="14" lengthAdjust="spacing" textLength="133" x="20" y="89.8457">Warehouse Manager</text><ellipse cx="89.5" cy="23.8125" fill="#E2E2F0" rx="8" ry="8" style="stroke:#181818;stroke-width:0.5;"/><path d="M89.5,31.8125 L89.5,58.8125 M76.5,39.8125 L102.5,39.8125 M89.5,58.8125 L76.5,73.8125 M89.5,58.8125 L102.5,73.8125 " fill="none" style="stroke:#181818;stroke-width:0.5;"/><text fill="#000000" font-family="sans-serif" font-size="14" lengthAdjust="spacing" textLength="133" x="20" y="510.3457">Warehouse Manager</text><ellipse cx="89.5" cy="521.9219" fill="#E2E2F0" rx="8" ry="8" style="stroke:#181818;stroke-width:0.5;"/><path d="M89.5,529.9219 L89.5,556.9219 M76.5,537.9219 L102.5,537.9219 M89.5,556.9219 L76.5,571.9219 M89.5,556.9219 L102.5,571.9219 " fill="none" style="stroke:#181818;stroke-width:0.5;"/><rect fill="#FFFFFF" height="49.2188" rx="2.5" ry="2.5" style="stroke:#000000;stroke-width:0.5;" width="120" x="324.5" y="42.7031"/><text fill="#000000" font-family="sans-serif" font-size="14" font-style="italic" lengthAdjust="spacing" textLength="106" x="331.5" y="64.2363">«Container(C4)»</text><text fill="#000000" font-family="sans-serif" font-size="14" lengthAdjust="spacing" textLength="27" x="371" y="81.8457">SPA</text><rect fill="#FFFFFF" height="49.2188" rx="2.5" ry="2.5" style="stroke:#000000;stroke-width:0.5;" width="120" x="324.5" y="495.8125"/><text fill="#000000" font-family="sans-serif" font-size="14" font-style="italic" lengthAdjust="spacing" textLength="106" x="331.5" y="517.3457">«Container(C4)»</text><text fill="#000000" font-family="sans-serif" font-size="14" lengthAdjust="spacing" textLength="27" x="371" y="534.9551">SPA</text><rect fill="#FFFFFF" height="49.2188" rx="2.5" ry="2.5" style="stroke:#000000;stroke-width:0.5;" width="169" x="539" y="42.7031"/><text fill="#000000" font-family="sans-serif" font-size="14" font-style="italic" lengthAdjust="spacing" textLength="106" x="570.5" y="64.2363">«Container(C4)»</text><text fill="#000000" font-family="sans-serif" font-size="14" lengthAdjust="spacing" textLength="155" x="546" y="81.8457">WarehouseManagement</text><rect fill="#FFFFFF" height="49.2188" rx="2.5" ry="2.5" style="stroke:#000000;stroke-width:0.5;" width="169" x="539" y="495.8125"/><text fill="#000000" font-family="sans-serif" font-size="14" font-style="italic" lengthAdjust="spacing" textLength="106" x="570.5" y="517.3457">«Container(C4)»</text><text fill="#000000" font-family="sans-serif" font-size="14" lengthAdjust="spacing" textLength="155" x="546" y="534.9551">WarehouseManagement</text><rect fill="#FFFFFF" height="30.3516" style="stroke:#181818;stroke-width:1.0;" width="10" x="379.5" y="125.2734"/><rect fill="#FFFFFF" height="300.8359" style="stroke:#181818;stroke-width:1.0;" width="10" x="379.5" y="185.9766"/><rect fill="#FFFFFF" height="55.7031" style="stroke:#181818;stroke-width:1.0;" width="10" x="618.5" y="216.3281"/><rect fill="#FFFFFF" height="46.1875" style="stroke:#181818;stroke-width:1.0;" width="10" x="618.5" y="318.7344"/><rect fill="#FFFFFF" height="46.1875" style="stroke:#181818;stroke-width:1.0;" width="10" x="618.5" y="395.2734"/><polygon fill="#181818" points="367.5,121.2734,377.5,125.2734,367.5,129.2734,371.5,125.2734" style="stroke:#181818;stroke-width:1.0;"/><line style="stroke:#181818;stroke-width:1.0;" x1="89.5" x2="373.5" y1="125.2734" y2="125.2734"/><text fill="#000000" font-family="sans-serif" font-size="13" font-weight="bold" lengthAdjust="spacing" textLength="7" x="96.5" y="120.417">1</text><text fill="#000000" font-family="sans-serif" font-size="13" lengthAdjust="spacing" textLength="174" x="107.5" y="120.417">I want to create a new delivery</text><polygon fill="#181818" points="100.5,151.625,90.5,155.625,100.5,159.625,96.5,155.625" style="stroke:#181818;stroke-width:1.0;"/><line style="stroke:#181818;stroke-width:1.0;stroke-dasharray:2.0,2.0;" x1="94.5" x2="383.5" y1="155.625" y2="155.625"/><text fill="#000000" font-family="sans-serif" font-size="13" font-weight="bold" lengthAdjust="spacing" textLength="7" x="106.5" y="150.7686">2</text><text fill="#000000" font-family="sans-serif" font-size="13" lengthAdjust="spacing" textLength="224" x="117.5" y="150.7686">asks for the details on the new delivery</text><polygon fill="#181818" points="367.5,181.9766,377.5,185.9766,367.5,189.9766,371.5,185.9766" style="stroke:#181818;stroke-width:1.0;"/><line style="stroke:#181818;stroke-width:1.0;" x1="89.5" x2="373.5" y1="185.9766" y2="185.9766"/><text fill="#000000" font-family="sans-serif" font-size="13" font-weight="bold" lengthAdjust="spacing" textLength="7" x="96.5" y="181.1201">3</text><text fill="#000000" font-family="sans-serif" font-size="13" lengthAdjust="spacing" textLength="260" x="107.5" y="181.1201">inserts the information about the new delivery</text><polygon fill="#181818" points="606.5,212.3281,616.5,216.3281,606.5,220.3281,610.5,216.3281" style="stroke:#181818;stroke-width:1.0;"/><line style="stroke:#181818;stroke-width:1.0;" x1="389.5" x2="612.5" y1="216.3281" y2="216.3281"/><text fill="#000000" font-family="sans-serif" font-size="13" font-weight="bold" lengthAdjust="spacing" textLength="7" x="396.5" y="211.4717">4</text><text fill="#000000" font-family="sans-serif" font-size="13" lengthAdjust="spacing" textLength="199" x="407.5" y="211.4717">POST CreateDelivery(deliveryDTO)</text><path d="M10,231.3281 L71,231.3281 L71,239.6797 L61,249.6797 L10,249.6797 L10,231.3281 " fill="#EEEEEE" style="stroke:#000000;stroke-width:1.5;"/><rect fill="none" height="248.4844" style="stroke:#000000;stroke-width:1.5;" width="708" x="10" y="231.3281"/><text fill="#000000" font-family="sans-serif" font-size="13" font-weight="bold" lengthAdjust="spacing" textLength="16" x="25" y="245.8232">alt</text><text fill="#000000" font-family="sans-serif" font-size="11" font-weight="bold" lengthAdjust="spacing" textLength="237" x="86" y="244.7471">[If the delivery doesn't exist in the system]</text><polygon fill="#181818" points="400.5,268.0313,390.5,272.0313,400.5,276.0313,396.5,272.0313" style="stroke:#181818;stroke-width:1.0;"/><line style="stroke:#181818;stroke-width:1.0;stroke-dasharray:2.0,2.0;" x1="394.5" x2="622.5" y1="272.0313" y2="272.0313"/><text fill="#000000" font-family="sans-serif" font-size="13" font-weight="bold" lengthAdjust="spacing" textLength="7" x="406.5" y="267.1748">5</text><text fill="#000000" font-family="sans-serif" font-size="13" lengthAdjust="spacing" textLength="115" x="417.5" y="267.1748">200 OK(createdObj)</text><polygon fill="#181818" points="100.5,314.7344,90.5,318.7344,100.5,322.7344,96.5,318.7344" style="stroke:#181818;stroke-width:1.0;"/><line style="stroke:#181818;stroke-width:1.0;stroke-dasharray:2.0,2.0;" x1="94.5" x2="378.5" y1="318.7344" y2="318.7344"/><text fill="#000000" font-family="sans-serif" font-size="13" font-weight="bold" lengthAdjust="spacing" textLength="7" x="106.5" y="305.7021">6</text><text fill="#000000" font-family="sans-serif" font-size="13" lengthAdjust="spacing" textLength="246" x="117.5" y="297.5264">informs about the success of the operation</text><text fill="#000000" font-family="sans-serif" font-size="13" lengthAdjust="spacing" textLength="132" x="121.5" y="313.8779">and the delivery details</text><line style="stroke:#000000;stroke-width:1.0;stroke-dasharray:2.0,2.0;" x1="10" x2="718" y1="327.7344" y2="327.7344"/><text fill="#000000" font-family="sans-serif" font-size="11" font-weight="bold" lengthAdjust="spacing" textLength="246" x="15" y="339.1533">[If a delivery already exists with the typed id]</text><polygon fill="#181818" points="400.5,360.9219,390.5,364.9219,400.5,368.9219,396.5,364.9219" style="stroke:#181818;stroke-width:1.0;"/><line style="stroke:#181818;stroke-width:1.0;stroke-dasharray:2.0,2.0;" x1="394.5" x2="622.5" y1="364.9219" y2="364.9219"/><text fill="#000000" font-family="sans-serif" font-size="13" font-weight="bold" lengthAdjust="spacing" textLength="7" x="406.5" y="360.0654">7</text><text fill="#000000" font-family="sans-serif" font-size="13" lengthAdjust="spacing" textLength="100" x="417.5" y="360.0654">400 Bad Request</text><polygon fill="#181818" points="100.5,391.2734,90.5,395.2734,100.5,399.2734,96.5,395.2734" style="stroke:#181818;stroke-width:1.0;"/><line style="stroke:#181818;stroke-width:1.0;stroke-dasharray:2.0,2.0;" x1="94.5" x2="378.5" y1="395.2734" y2="395.2734"/><text fill="#000000" font-family="sans-serif" font-size="13" font-weight="bold" lengthAdjust="spacing" textLength="7" x="106.5" y="390.417">8</text><text fill="#000000" font-family="sans-serif" font-size="13" lengthAdjust="spacing" textLength="233" x="117.5" y="390.417">informs that the delivery was not created</text><line style="stroke:#000000;stroke-width:1.0;stroke-dasharray:2.0,2.0;" x1="10" x2="718" y1="404.2734" y2="404.2734"/><text fill="#000000" font-family="sans-serif" font-size="11" font-weight="bold" lengthAdjust="spacing" textLength="285" x="15" y="415.6924">[If the attributes do not respect the business rules]</text><polygon fill="#181818" points="400.5,437.4609,390.5,441.4609,400.5,445.4609,396.5,441.4609" style="stroke:#181818;stroke-width:1.0;"/><line style="stroke:#181818;stroke-width:1.0;stroke-dasharray:2.0,2.0;" x1="394.5" x2="622.5" y1="441.4609" y2="441.4609"/><text fill="#000000" font-family="sans-serif" font-size="13" font-weight="bold" lengthAdjust="spacing" textLength="7" x="406.5" y="436.6045">9</text><text fill="#000000" font-family="sans-serif" font-size="13" lengthAdjust="spacing" textLength="100" x="417.5" y="436.6045">400 Bad Request</text><polygon fill="#181818" points="100.5,467.8125,90.5,471.8125,100.5,475.8125,96.5,471.8125" style="stroke:#181818;stroke-width:1.0;"/><line style="stroke:#181818;stroke-width:1.0;stroke-dasharray:2.0,2.0;" x1="94.5" x2="378.5" y1="471.8125" y2="471.8125"/><text fill="#000000" font-family="sans-serif" font-size="13" font-weight="bold" lengthAdjust="spacing" textLength="14" x="106.5" y="466.9561">10</text><text fill="#000000" font-family="sans-serif" font-size="13" lengthAdjust="spacing" textLength="194" x="124.5" y="466.9561">informs which business rule failed</text><!--MD5=[56a10a9407db1026bedb5ea3f7fcd316]
@startuml createDeliverySD
autonumber

skinparam sequence {
    ParticipantBorderColor black
    ParticipantBackgroundColor white
}

actor "Warehouse Manager" as admin


box "<<EletricGo(C4)>>\n\tSystem"
participant SPA as system <<Container(C4)>>
participant WarehouseManagement as  WM <<Container(C4)>>
end box

admin -> system: I want to create a new delivery
activate system

system - -> admin: asks for the details on the new delivery
deactivate system

admin -> system: inserts the information about the new delivery

activate system
system -> WM: POST CreateDelivery(deliveryDTO)
activate WM

alt If the delivery doesn't exist in the system  
WM - -> system: 200 OK(createdObj)
deactivate WM

system - -> admin: informs about the success of the operation \n and the delivery details


else If a delivery already exists with the typed id

activate WM
WM - -> system: 400 Bad Request
deactivate WM

system - -> admin: informs that the delivery was not created

else If the attributes do not respect the business rules

activate WM
WM - -> system: 400 Bad Request
deactivate WM

system - -> admin: informs which business rule failed

end

deactivate system
deactivate admin

@enduml

PlantUML version 1.2022.12(Sun Oct 23 18:12:26 GMT 2022)
(GPL source distribution)
Java Runtime: OpenJDK Runtime Environment
JVM: OpenJDK 64-Bit Server VM
Default Encoding: Cp1252
Language: pt
Country: PT
--></g></svg>