<?xml version="1.0" encoding="UTF-8" standalone="no"?><svg xmlns="http://www.w3.org/2000/svg" xmlns:xlink="http://www.w3.org/1999/xlink" contentStyleType="text/css" height="596px" preserveAspectRatio="none" style="width:807px;height:596px;background:#FFFFFF;" version="1.1" viewBox="0 0 807 596" width="807px" zoomAndPan="magnify"><defs/><g><rect fill="#DDDDDD" height="584.0938" style="stroke:#181818;stroke-width:0.5;" width="402.5" x="391.5" y="6"/><text fill="#000000" font-family="sans-serif" font-size="13" font-weight="bold" lengthAdjust="spacing" textLength="114" x="535.75" y="19.4951">&lt;&lt;EletricGo(C4)&gt;&gt;</text><text fill="#000000" font-family="sans-serif" font-size="13" font-weight="bold" lengthAdjust="spacing" textLength="46" x="567.75" y="35.8467">System</text><rect fill="#FFFFFF" height="30.3516" style="stroke:#181818;stroke-width:1.0;" width="10" x="450.5" y="125.2734"/><rect fill="#FFFFFF" height="313.5078" style="stroke:#181818;stroke-width:1.0;" width="10" x="450.5" y="185.9766"/><rect fill="#FFFFFF" height="68.375" style="stroke:#181818;stroke-width:1.0;" width="10" x="700.5" y="216.3281"/><rect fill="#FFFFFF" height="46.1875" style="stroke:#181818;stroke-width:1.0;" width="10" x="700.5" y="331.4063"/><rect fill="#FFFFFF" height="46.1875" style="stroke:#181818;stroke-width:1.0;" width="10" x="700.5" y="407.9453"/><rect fill="none" height="261.1563" style="stroke:#000000;stroke-width:1.5;" width="790" x="10" y="231.3281"/><line style="stroke:#181818;stroke-width:0.5;stroke-dasharray:5.0,5.0;" x1="89" x2="89" y1="92.9219" y2="509.4844"/><line style="stroke:#181818;stroke-width:0.5;stroke-dasharray:5.0,5.0;" x1="455.5" x2="455.5" y1="92.9219" y2="509.4844"/><line style="stroke:#181818;stroke-width:0.5;stroke-dasharray:5.0,5.0;" x1="705" x2="705" y1="92.9219" y2="509.4844"/><text fill="#000000" font-family="sans-serif" font-size="14" lengthAdjust="spacing" textLength="133" x="20" y="89.8457">Warehouse Manager</text><ellipse cx="89.5" cy="23.8125" fill="#E2E2F0" rx="8" ry="8" style="stroke:#181818;stroke-width:0.5;"/><path d="M89.5,31.8125 L89.5,58.8125 M76.5,39.8125 L102.5,39.8125 M89.5,58.8125 L76.5,73.8125 M89.5,58.8125 L102.5,73.8125 " fill="none" style="stroke:#181818;stroke-width:0.5;"/><text fill="#000000" font-family="sans-serif" font-size="14" lengthAdjust="spacing" textLength="133" x="20" y="523.0176">Warehouse Manager</text><ellipse cx="89.5" cy="534.5938" fill="#E2E2F0" rx="8" ry="8" style="stroke:#181818;stroke-width:0.5;"/><path d="M89.5,542.5938 L89.5,569.5938 M76.5,550.5938 L102.5,550.5938 M89.5,569.5938 L76.5,584.5938 M89.5,569.5938 L102.5,584.5938 " fill="none" style="stroke:#181818;stroke-width:0.5;"/><rect fill="#FFFFFF" height="49.2188" rx="2.5" ry="2.5" style="stroke:#000000;stroke-width:0.5;" width="120" x="395.5" y="42.7031"/><text fill="#000000" font-family="sans-serif" font-size="14" font-style="italic" lengthAdjust="spacing" textLength="106" x="402.5" y="64.2363">«Container(C4)»</text><text fill="#000000" font-family="sans-serif" font-size="14" lengthAdjust="spacing" textLength="27" x="442" y="81.8457">SPA</text><rect fill="#FFFFFF" height="49.2188" rx="2.5" ry="2.5" style="stroke:#000000;stroke-width:0.5;" width="120" x="395.5" y="508.4844"/><text fill="#000000" font-family="sans-serif" font-size="14" font-style="italic" lengthAdjust="spacing" textLength="106" x="402.5" y="530.0176">«Container(C4)»</text><text fill="#000000" font-family="sans-serif" font-size="14" lengthAdjust="spacing" textLength="27" x="442" y="547.627">SPA</text><rect fill="#FFFFFF" height="49.2188" rx="2.5" ry="2.5" style="stroke:#000000;stroke-width:0.5;" width="169" x="621" y="42.7031"/><text fill="#000000" font-family="sans-serif" font-size="14" font-style="italic" lengthAdjust="spacing" textLength="106" x="652.5" y="64.2363">«Container(C4)»</text><text fill="#000000" font-family="sans-serif" font-size="14" lengthAdjust="spacing" textLength="155" x="628" y="81.8457">WarehouseManagement</text><rect fill="#FFFFFF" height="49.2188" rx="2.5" ry="2.5" style="stroke:#000000;stroke-width:0.5;" width="169" x="621" y="508.4844"/><text fill="#000000" font-family="sans-serif" font-size="14" font-style="italic" lengthAdjust="spacing" textLength="106" x="652.5" y="530.0176">«Container(C4)»</text><text fill="#000000" font-family="sans-serif" font-size="14" lengthAdjust="spacing" textLength="155" x="628" y="547.627">WarehouseManagement</text><rect fill="#FFFFFF" height="30.3516" style="stroke:#181818;stroke-width:1.0;" width="10" x="450.5" y="125.2734"/><rect fill="#FFFFFF" height="313.5078" style="stroke:#181818;stroke-width:1.0;" width="10" x="450.5" y="185.9766"/><rect fill="#FFFFFF" height="68.375" style="stroke:#181818;stroke-width:1.0;" width="10" x="700.5" y="216.3281"/><rect fill="#FFFFFF" height="46.1875" style="stroke:#181818;stroke-width:1.0;" width="10" x="700.5" y="331.4063"/><rect fill="#FFFFFF" height="46.1875" style="stroke:#181818;stroke-width:1.0;" width="10" x="700.5" y="407.9453"/><polygon fill="#181818" points="438.5,121.2734,448.5,125.2734,438.5,129.2734,442.5,125.2734" style="stroke:#181818;stroke-width:1.0;"/><line style="stroke:#181818;stroke-width:1.0;" x1="89.5" x2="444.5" y1="125.2734" y2="125.2734"/><text fill="#000000" font-family="sans-serif" font-size="13" font-weight="bold" lengthAdjust="spacing" textLength="7" x="96.5" y="120.417">1</text><text fill="#000000" font-family="sans-serif" font-size="13" lengthAdjust="spacing" textLength="206" x="107.5" y="120.417">I want to update an existing delivery</text><polygon fill="#181818" points="100.5,151.625,90.5,155.625,100.5,159.625,96.5,155.625" style="stroke:#181818;stroke-width:1.0;"/><line style="stroke:#181818;stroke-width:1.0;stroke-dasharray:2.0,2.0;" x1="94.5" x2="454.5" y1="155.625" y2="155.625"/><text fill="#000000" font-family="sans-serif" font-size="13" font-weight="bold" lengthAdjust="spacing" textLength="7" x="106.5" y="150.7686">2</text><text fill="#000000" font-family="sans-serif" font-size="13" lengthAdjust="spacing" textLength="326" x="117.5" y="150.7686">asks for the id and details which are going to be updated</text><polygon fill="#181818" points="438.5,181.9766,448.5,185.9766,438.5,189.9766,442.5,185.9766" style="stroke:#181818;stroke-width:1.0;"/><line style="stroke:#181818;stroke-width:1.0;" x1="89.5" x2="444.5" y1="185.9766" y2="185.9766"/><text fill="#000000" font-family="sans-serif" font-size="13" font-weight="bold" lengthAdjust="spacing" textLength="7" x="96.5" y="181.1201">3</text><text fill="#000000" font-family="sans-serif" font-size="13" lengthAdjust="spacing" textLength="233" x="107.5" y="181.1201">inserts the information about the delivery</text><polygon fill="#181818" points="688.5,212.3281,698.5,216.3281,688.5,220.3281,692.5,216.3281" style="stroke:#181818;stroke-width:1.0;"/><line style="stroke:#181818;stroke-width:1.0;" x1="460.5" x2="694.5" y1="216.3281" y2="216.3281"/><text fill="#000000" font-family="sans-serif" font-size="13" font-weight="bold" lengthAdjust="spacing" textLength="7" x="467.5" y="211.4717">4</text><text fill="#000000" font-family="sans-serif" font-size="13" lengthAdjust="spacing" textLength="210" x="478.5" y="211.4717">PATCH UpdateDelivery(deliveryDTO)</text><path d="M10,231.3281 L71,231.3281 L71,239.6797 L61,249.6797 L10,249.6797 L10,231.3281 " fill="#EEEEEE" style="stroke:#000000;stroke-width:1.5;"/><rect fill="none" height="261.1563" style="stroke:#000000;stroke-width:1.5;" width="790" x="10" y="231.3281"/><text fill="#000000" font-family="sans-serif" font-size="13" font-weight="bold" lengthAdjust="spacing" textLength="16" x="25" y="245.8232">alt</text><text fill="#000000" font-family="sans-serif" font-size="11" font-weight="bold" lengthAdjust="spacing" textLength="254" x="86" y="244.7471">[If the delivery ID matches and the information</text><text fill="#000000" font-family="sans-serif" font-size="11" font-weight="bold" lengthAdjust="spacing" textLength="141" x="89" y="258.583">respects business rules]</text><polygon fill="#181818" points="471.5,280.7031,461.5,284.7031,471.5,288.7031,467.5,284.7031" style="stroke:#181818;stroke-width:1.0;"/><line style="stroke:#181818;stroke-width:1.0;stroke-dasharray:2.0,2.0;" x1="465.5" x2="704.5" y1="284.7031" y2="284.7031"/><text fill="#000000" font-family="sans-serif" font-size="13" font-weight="bold" lengthAdjust="spacing" textLength="7" x="477.5" y="279.8467">5</text><text fill="#000000" font-family="sans-serif" font-size="13" lengthAdjust="spacing" textLength="118" x="488.5" y="279.8467">200 OK(updatedObj)</text><polygon fill="#181818" points="100.5,327.4063,90.5,331.4063,100.5,335.4063,96.5,331.4063" style="stroke:#181818;stroke-width:1.0;"/><line style="stroke:#181818;stroke-width:1.0;stroke-dasharray:2.0,2.0;" x1="94.5" x2="449.5" y1="331.4063" y2="331.4063"/><text fill="#000000" font-family="sans-serif" font-size="13" font-weight="bold" lengthAdjust="spacing" textLength="7" x="106.5" y="318.374">6</text><text fill="#000000" font-family="sans-serif" font-size="13" lengthAdjust="spacing" textLength="246" x="117.5" y="310.1982">informs about the success of the operation</text><text fill="#000000" font-family="sans-serif" font-size="13" lengthAdjust="spacing" textLength="132" x="121.5" y="326.5498">and the delivery details</text><line style="stroke:#000000;stroke-width:1.0;stroke-dasharray:2.0,2.0;" x1="10" x2="800" y1="340.4063" y2="340.4063"/><text fill="#000000" font-family="sans-serif" font-size="11" font-weight="bold" lengthAdjust="spacing" textLength="295" x="15" y="351.8252">[If the inserted info does not respect business rules]</text><polygon fill="#181818" points="471.5,373.5938,461.5,377.5938,471.5,381.5938,467.5,377.5938" style="stroke:#181818;stroke-width:1.0;"/><line style="stroke:#181818;stroke-width:1.0;stroke-dasharray:2.0,2.0;" x1="465.5" x2="704.5" y1="377.5938" y2="377.5938"/><text fill="#000000" font-family="sans-serif" font-size="13" font-weight="bold" lengthAdjust="spacing" textLength="7" x="477.5" y="372.7373">7</text><text fill="#000000" font-family="sans-serif" font-size="13" lengthAdjust="spacing" textLength="100" x="488.5" y="372.7373">400 Bad Request</text><polygon fill="#181818" points="100.5,403.9453,90.5,407.9453,100.5,411.9453,96.5,407.9453" style="stroke:#181818;stroke-width:1.0;"/><line style="stroke:#181818;stroke-width:1.0;stroke-dasharray:2.0,2.0;" x1="94.5" x2="449.5" y1="407.9453" y2="407.9453"/><text fill="#000000" font-family="sans-serif" font-size="13" font-weight="bold" lengthAdjust="spacing" textLength="7" x="106.5" y="403.0889">8</text><text fill="#000000" font-family="sans-serif" font-size="13" lengthAdjust="spacing" textLength="236" x="117.5" y="403.0889">informs that the delivery was not updated</text><line style="stroke:#000000;stroke-width:1.0;stroke-dasharray:2.0,2.0;" x1="10" x2="800" y1="416.9453" y2="416.9453"/><text fill="#000000" font-family="sans-serif" font-size="11" font-weight="bold" lengthAdjust="spacing" textLength="207" x="15" y="428.3643">[If the ID does not match any delivery]</text><polygon fill="#181818" points="471.5,450.1328,461.5,454.1328,471.5,458.1328,467.5,454.1328" style="stroke:#181818;stroke-width:1.0;"/><line style="stroke:#181818;stroke-width:1.0;stroke-dasharray:2.0,2.0;" x1="465.5" x2="704.5" y1="454.1328" y2="454.1328"/><text fill="#000000" font-family="sans-serif" font-size="13" font-weight="bold" lengthAdjust="spacing" textLength="7" x="477.5" y="449.2764">9</text><text fill="#000000" font-family="sans-serif" font-size="13" lengthAdjust="spacing" textLength="100" x="488.5" y="449.2764">400 Bad Request</text><polygon fill="#181818" points="100.5,480.4844,90.5,484.4844,100.5,488.4844,96.5,484.4844" style="stroke:#181818;stroke-width:1.0;"/><line style="stroke:#181818;stroke-width:1.0;stroke-dasharray:2.0,2.0;" x1="94.5" x2="449.5" y1="484.4844" y2="484.4844"/><text fill="#000000" font-family="sans-serif" font-size="13" font-weight="bold" lengthAdjust="spacing" textLength="14" x="106.5" y="479.6279">10</text><text fill="#000000" font-family="sans-serif" font-size="13" lengthAdjust="spacing" textLength="243" x="124.5" y="479.6279">infroams that the delivery was not updated</text><!--MD5=[6ef0760928a1adfd2074518a75b2c09e]
@startuml updateDeliverySD
autonumber

skinparam sequence {
    ParticipantBorderColor black
    ParticipantBackgroundColor white
}

actor "Warehouse Manager" as admin


box "<<EletricGo(C4)>>\n\tSystem"
participant SPA as system <<Container(C4)>>
participant WarehouseManagement as  WM <<Container(C4)>>
end box

admin -> system: I want to update an existing delivery
activate system

system - -> admin: asks for the id and details which are going to be updated
deactivate system

admin -> system: inserts the information about the delivery

activate system
system -> WM: PATCH UpdateDelivery(deliveryDTO)
activate WM

alt If the delivery ID matches and the information\n respects business rules 
WM - -> system: 200 OK(updatedObj)
deactivate WM

system - -> admin: informs about the success of the operation \n and the delivery details


else If the inserted info does not respect business rules

activate WM
WM - -> system: 400 Bad Request
deactivate WM

system - -> admin: informs that the delivery was not updated

else If the ID does not match any delivery

activate WM
WM - -> system: 400 Bad Request
deactivate WM

system - -> admin: infroams that the delivery was not updated

end

deactivate system
deactivate admin

@enduml

PlantUML version 1.2022.12(Sun Oct 23 18:12:26 GMT 2022)
(GPL source distribution)
Java Runtime: OpenJDK Runtime Environment
JVM: OpenJDK 64-Bit Server VM
Default Encoding: Cp1252
Language: pt
Country: PT
--></g></svg>